<svg xmlns="http://www.w3.org/2000/svg" width="326" height="234" fill="none"><mask id="a" width="231" height="139" x="49" y="31" maskUnits="userSpaceOnUse" style="mask-type:alpha"><path fill="#D9D9D9" fill-rule="evenodd" d="M276.678 169.912a115.55 115.55 0 0 0 2.472-23.837C279.15 82.521 227.629 31 164.075 31S49 82.52 49 146.075c0 8.173.852 16.146 2.472 23.837h225.206Z" clip-rule="evenodd"/></mask><g mask="url(#a)"><path fill="url(#b)" d="m188.331 27.48-1.668-1.815-.303.278c-8.498 7.81-39.437 23.673-93.948 22.543l-.41-.008-.052 2.465.411.009c54.906 1.138 86.551-14.813 95.668-23.193l.302-.278Z"/><path fill="url(#c)" d="m173.44 28.327-1.692-1.794-.299.282c-7.58 7.15-34.536 20.796-80.397 15.882l-.41-.043-.262 2.451.409.044c46.363 4.968 74.109-8.765 82.352-16.54l.299-.282Z"/><path fill="url(#d)" d="m161.181 28.173-1.912-1.558-.259.318c-4.328 5.308-19.901 15.622-46.549 11.91l-.407-.057-.34 2.442.407.057c27.383 3.815 43.857-6.73 48.8-12.794l.26-.318Z"/><path fill="url(#e)" d="m151.341 28.102-1.997-1.446-.241.333c-2.592 3.58-12.069 10.698-28.401 8.136l-.406-.064-.382 2.436.406.064c17.204 2.699 27.619-4.76 30.78-9.126l.241-.333Z"/><path fill="url(#f)" d="m201.417 32.189-1.524-1.938-.323.254c-3.165 2.49-9.496 5.192-18.815 7.954-9.265 2.745-21.326 5.506-35.809 8.179-3.318.612-6.702 1.306-10.179 2.019h-.002c-13.333 2.734-28.066 5.753-45.995 5.622l-.41-.003-.019 2.466.411.003c18.21.133 33.224-2.946 46.568-5.683l.01-.002c3.459-.71 6.803-1.395 10.064-1.997 14.53-2.682 26.683-5.46 36.062-8.24 9.324-2.764 16.068-5.572 19.638-8.38l.323-.254Z"/><path fill="url(#g)" d="m213.409 36.328-1.44-2.003-.333.24c-5.024 3.61-15.576 8.341-32.997 11.663-5.263 1.004-11.455 1.63-18.097 2.302l-.187.019c-6.689.676-13.805 1.4-20.739 2.607-6.357 1.107-12.388 2.772-18.561 4.476l-.01.002c-3.541.978-7.13 1.968-10.862 2.877-10.29 2.506-21.87 4.454-36.978 3.96l-.41-.014-.081 2.464.41.014c15.388.503 27.197-1.484 37.642-4.028 3.856-.939 7.499-1.945 11.053-2.927h.003c6.118-1.69 11.968-3.306 18.217-4.394 6.833-1.19 13.862-1.906 20.564-2.584l.25-.025c6.588-.666 12.875-1.302 18.248-2.327 17.606-3.357 28.547-8.182 33.974-12.082l.334-.24Z"/><path fill="url(#h)" d="m217.754 41.597-1.492-1.964-.327.249c-5.225 3.97-17.282 9.357-31.139 12.102-5.248 1.04-12.574 1.054-20.512 1.07h-.885c-8.194.017-16.916.077-24.202 1.392-7.518 1.356-14.333 3.948-21.33 6.61l-.017.006c-2.758 1.049-5.545 2.108-8.421 3.111-10.217 3.563-21.753 6.496-37.422 5.886l-.411-.016-.096 2.464.41.016c16.07.625 27.924-2.392 38.331-6.021 2.986-1.042 5.838-2.126 8.622-3.185l.003-.001c6.955-2.646 13.492-5.13 20.769-6.444 7.032-1.269 15.528-1.335 23.769-1.351l1.032-.002c7.795-.014 15.341-.028 20.839-1.116 14.089-2.791 26.535-8.29 32.152-12.558l.327-.248Z"/><path fill="url(#i)" d="m222.719 44.011-1.583-1.89-.315.263c-5.765 4.826-18.344 13.68-33.164 16.82-5.584 1.182-13.504.575-22.172-.094l-1.116-.086c-8.972-.69-18.577-1.35-26.507.175-8.129 1.563-15.487 4.609-23.039 7.736l-.019.007c-2.977 1.233-5.985 2.478-9.09 3.655-11.032 4.18-23.492 7.594-40.453 6.74l-.41-.02-.125 2.462.41.02c17.406.877 30.216-2.64 41.452-6.897 3.224-1.221 6.303-2.496 9.309-3.74l.002-.002c7.508-3.108 14.563-6.027 22.428-7.54 7.547-1.45 16.807-.832 25.853-.137l1.258.097.067.005c8.458.654 16.709 1.292 22.663.03 15.386-3.259 28.331-12.398 34.236-17.34l.315-.264Z"/><path fill="url(#j)" d="m231.773 47.278-1.617-1.86-.311.269c-6.247 5.428-19.878 15.38-35.96 18.877-3.127.68-6.974.825-11.311.687-3.948-.126-8.233-.481-12.674-.85-.43-.035-.861-.07-1.294-.107-9.736-.803-20.15-1.576-28.739.118-6.209 1.224-11.497 3.433-16.6 5.916-1.796.874-3.559 1.776-5.328 2.682h-.001l-.003.001c-3.289 1.684-6.598 3.377-10.202 4.934-10.965 4.736-24.472 8.105-46.635 4.852l-.407-.06-.358 2.44.407.06c22.633 3.322 36.6-.117 47.971-5.028 3.674-1.587 7.097-3.338 10.415-5.036l.005-.003c1.759-.9 3.489-1.785 5.215-2.625 5.018-2.442 10.088-4.549 15.998-5.714 8.19-1.615 18.246-.89 28.059-.08l1.299.108.007.001c4.424.367 8.771.728 12.786.856 4.402.14 8.489.003 11.914-.742 16.667-3.625 30.671-13.88 37.054-19.426l.31-.27Z"/><path fill="url(#k)" d="m240.012 51.354-1.673-1.811-.302.279c-6.569 6.072-20.899 17.182-37.841 21.032-3.292.748-7.346.891-11.921.716-4.163-.16-8.682-.58-13.367-1.014l-.014-.002-1.351-.125c-10.27-.949-21.256-1.867-30.308-.006-6.53 1.343-12.368 3.8-18.092 6.524-1.706.813-3.4 1.647-5.097 2.484l-.005.002c-4.023 1.983-8.071 3.978-12.416 5.741-12.26 4.977-26.77 8.057-48.48 2.985l-.401-.094-.561 2.402.4.093c22.265 5.202 37.297 2.043 49.969-3.1 4.433-1.8 8.591-3.849 12.631-5.84l.006-.003a411.33 411.33 0 0 1 5.014-2.443c5.666-2.697 11.292-5.053 17.529-6.335 8.627-1.774 19.231-.911 29.584.046l1.371.127h.007c4.667.434 9.252.86 13.487 1.022 4.642.178 8.952.045 12.562-.776 17.558-3.99 32.271-15.435 38.968-21.625l.301-.28Z"/><path fill="url(#l)" d="m249.854 57.145-1.612-1.866-.311.269c-7.188 6.21-22.878 17.605-41.398 21.616-3.615.783-8.052.949-13.039.793-4.54-.141-9.467-.545-14.567-.964l-.075-.006a4091 4091 0 0 0-1.411-.116c-11.189-.914-23.123-1.788-32.96.144-7.123 1.4-13.133 4.044-18.872 6.95a343.332 343.332 0 0 0-4.986 2.593c-4.009 2.111-7.991 4.209-12.329 6.006-12.113 5.019-26.945 7.661-51.554.543l-.395-.114-.685 2.368.395.115c25.12 7.266 40.528 4.609 53.183-.634 4.45-1.843 8.567-4.012 12.596-6.134l.007-.004c1.636-.862 3.256-1.715 4.882-2.538 5.661-2.867 11.436-5.396 18.234-6.73 9.439-1.855 21.017-1.027 32.283-.107l1.499.123c5.083.417 10.071.826 14.678.97 5.051.157 9.727 0 13.638-.848 19.102-4.138 35.164-15.832 42.488-22.16l.311-.269Z"/><path fill="url(#m)" d="m252.353 60.375-1.706-1.78-.297.284c-7.252 6.95-23.076 19.656-41.813 24.026-3.648.85-8.137 1.003-13.196.788-4.604-.195-9.603-.689-14.782-1.2l-1.509-.15c-11.356-1.117-23.489-2.199-33.474-.095-7.231 1.524-13.316 4.462-19.117 7.692a334.85 334.85 0 0 0-5.039 2.882l-.002.001c-4.05 2.348-8.071 4.678-12.456 6.669-12.23 5.55-27.23 8.411-52.237.201l-.39-.128-.77 2.343.39.128c25.565 8.393 41.206 5.52 54.026-.299 4.504-2.044 8.668-4.458 12.739-6.817l.008-.005a325.441 325.441 0 0 1 4.931-2.82c5.721-3.186 11.553-5.986 18.426-7.434 9.544-2.011 21.281-.99 32.724.136l.772.076.742.074h.008c5.16.51 10.228 1.012 14.906 1.21 5.129.217 9.884.076 13.86-.85 19.372-4.519 35.584-17.58 42.959-24.648l.297-.284Z"/><path fill="url(#n)" d="m266.322 63.671-1.693-1.793-.299.282c-8.03 7.58-26.18 19.975-46.767 26.473-4.328 1.367-9.435 1.696-15.074 1.454-5.634-.241-11.708-1.047-17.961-1.9l-.934-.127c-12.142-1.657-24.944-3.404-35.799-1.14-9.062 1.89-17.483 6.765-25.651 11.706-.613.37-1.225.742-1.835 1.112-7.595 4.609-15.002 9.102-22.76 11.457-6.433 1.952-13.643 1.665-21.707 1-1.187-.098-2.39-.204-3.61-.312l-.013-.001c-7.005-.617-14.558-1.281-22.481-.738l-.41.029.168 2.46.41-.028c7.715-.53 15.068.116 22.087.733h.005c1.224.108 2.438.215 3.641.314 8.045.664 15.692 1.007 22.626-1.098 8.075-2.451 15.739-7.104 23.262-11.671l.025-.015.006-.003 1.862-1.129c8.204-4.963 16.286-9.61 24.878-11.403 10.42-2.173 22.844-.483 35.166 1.198l.731.1c6.235.85 12.422 1.673 18.189 1.92 5.763.247 11.198-.075 15.922-1.566 20.967-6.62 39.437-19.215 47.717-27.032l.299-.282Z"/><path fill="url(#o)" d="m276.972 69.486-1.593-1.882-.313.265c-8.705 7.367-28.344 19.453-50.569 25.881-9.47 2.739-22.121 1.39-35.623-.16l-.981-.112c-13.064-1.5-26.787-3.077-38.441-.82-9.771 1.893-18.076 7.009-26.116 12.167l-1.409.906c-7.607 4.892-15.037 9.667-23.529 12.031-6.044 1.683-13.246 1.865-21.289 2.066h-.003c-1.285.032-2.59.065-3.913.104-9.537.284-19.962.926-30.34 4.426l-.39.131.788 2.337.39-.132c10.009-3.375 20.12-4.015 29.626-4.297a674.09 674.09 0 0 1 3.872-.102h.002l.003-.001h.037c7.976-.197 15.513-.384 21.879-2.156 8.87-2.47 16.593-7.439 24.124-12.283l.035-.023 1.449-.932c8.067-5.175 16.005-10.03 25.253-11.82 11.264-2.183 24.649-.65 37.872.869l.8.092c13.336 1.53 26.543 2.984 36.589.078 22.571-6.528 42.517-18.785 51.477-26.368l.313-.265Z"/><path fill="url(#p)" d="m276.972 75.24-1.593-1.882-.313.265c-8.705 7.367-28.344 19.453-50.569 25.88-9.47 2.74-22.121 1.391-35.623-.158l-.981-.113c-13.064-1.5-26.787-3.077-38.441-.82-9.533 1.847-16.496 6.619-23.682 11.543l-.606.415c-7.423 5.083-15.25 10.317-26.73 13.137l-.018.004-.018.005c-3.47.966-6.654 1.257-9.996 1.405-.9.039-1.813.069-2.75.099h-.005c-2.52.081-5.196.168-8.12.476-8.1.854-18.121 3.408-33.252 12.113l-.356.205 1.23 2.137.356-.205c14.872-8.556 24.565-10.984 32.281-11.798 2.828-.298 5.387-.381 7.893-.461h.002c.948-.031 1.888-.061 2.83-.103 3.411-.151 6.804-.452 10.53-1.487 11.937-2.935 20.075-8.397 27.516-13.492l.495-.339c7.268-4.979 13.855-9.487 22.869-11.233 11.264-2.182 24.649-.649 37.872.87l.8.091c13.336 1.53 26.542 2.984 36.589.079 22.571-6.528 42.517-18.785 51.477-26.368l.313-.265Z"/><path fill="url(#q)" d="m277.794 80.994-1.592-1.883-.411.348c-8.891 7.524-27.559 23.305-49.589 29.676-4.665 1.349-10.216 1.475-16.367.927-6.144-.548-12.784-1.756-19.615-3.013l-.584-.107c-13.391-2.464-27.537-5.067-39.362-2.776-9.533 1.847-16.496 6.618-23.682 11.542l-.606.416c-7.423 5.083-15.25 10.317-26.73 13.136l-.018.005-.018.005c-3.463.964-6.435 1.179-9.57 1.314l-1.19.049h-.006c-2.785.111-5.765.23-9.26.833-8.038 1.388-18.676 5.311-36.632 17.282l-.342.228 1.368 2.052.342-.228c17.8-11.867 28.11-15.596 35.683-16.904 3.326-.574 6.15-.687 8.94-.799h.007l1.196-.049c3.18-.138 6.374-.36 10.107-1.397 11.937-2.936 20.075-8.397 27.516-13.493l.495-.339c7.268-4.979 13.855-9.486 22.869-11.232 11.349-2.199 25.092.323 38.7 2.827l.331.061c6.808 1.252 13.563 2.483 19.843 3.043 6.273.559 12.176.459 17.27-1.014 22.57-6.527 41.585-22.62 50.458-30.13l.449-.38Z"/><path fill="url(#r)" d="m277.794 85.925-1.593-1.882-.313.265c-1.803 1.526-3.964 3.585-6.413 5.917l-.008.008c-.599.57-1.216 1.158-1.849 1.758-3.244 3.076-6.957 6.528-11.086 9.944-8.269 6.842-18.134 13.482-29.097 16.653-4.646 1.343-9.896 1.322-15.604.549-5.708-.773-11.771-2.281-18.04-3.846l-.269-.067c-12.359-3.085-25.537-6.376-37.49-4.06-9.684 1.876-17.628 5.953-25.998 10.25l-.059.03c-8.412 4.317-17.317 8.885-29.089 11.93-2.927.757-5.699 1.197-8.575 1.652l-.01.002c-.748.119-1.502.238-2.266.365-3.696.611-7.586 1.377-12.013 2.968-8.862 3.186-19.724 9.624-35.618 24.486l-.3.28 1.684 1.802.3-.281c15.752-14.729 26.333-20.934 34.768-23.966 4.223-1.518 7.945-2.255 11.581-2.857.742-.122 1.482-.239 2.223-.357l.008-.001c2.879-.456 5.784-.917 8.835-1.706 12.048-3.116 21.161-7.793 29.561-12.105l.037-.018c8.43-4.327 16.089-8.249 25.4-10.053 11.398-2.208 24.111.958 36.691 4.098l.002.001c6.24 1.557 12.439 3.102 18.307 3.897 5.868.794 11.506.854 16.619-.624 11.435-3.308 21.607-10.191 29.984-17.122 4.194-3.471 7.956-6.968 11.211-10.054l1.86-1.77.012-.01c2.455-2.339 4.552-4.336 6.294-5.81l.313-.266Z"/><path fill="url(#s)" d="m287.586 101.238-1.4-2.03-.338.233c-1.446.997-2.928 2.46-4.455 4.22l-.339-.458-.33.244c-2.234 1.653-4.979 4.114-8.107 6.919l-.001.001-.641.575c-3.419 3.064-7.319 6.534-11.631 9.942-8.642 6.828-18.841 13.324-29.955 15.767-9.591 2.109-20.616-.392-32.491-3.278l-1.336-.326-.035-.008c-11.35-2.765-23.365-5.692-35.029-4.631-9.17.833-17.256 3.077-26.013 5.515l-.159.045c-8.724 2.429-18.169 5.059-30.196 6.777-1.942.277-3.743.476-5.462.665l-.02.002c-5.755.635-10.586 1.168-16.441 4.239-7.567 3.968-16.84 12.141-32.664 30.02l-.273.307 1.847 1.635.272-.308c15.822-17.877 24.837-25.733 31.963-29.47 5.415-2.84 9.74-3.322 15.424-3.951l.003-.001c1.75-.193 3.628-.401 5.7-.697 12.188-1.741 21.762-4.407 30.482-6.835l.186-.052c8.781-2.445 16.66-4.625 25.574-5.435 11.236-1.022 22.887 1.811 34.358 4.604l.091.022 1.145.279c11.743 2.854 23.352 5.544 33.604 3.291 11.659-2.563 22.211-9.334 30.953-16.242 4.379-3.46 8.329-6.975 11.749-10.04l.594-.532 1.61-1.442c-.502.682-1.012 1.379-1.53 2.087l-.013.016c-2.259 3.087-4.675 6.388-7.313 9.673-7.69 9.577-16.979 18.64-28.754 21.054-10.363 2.125-20.903.031-32.257-2.415l-1.373-.296c-10.882-2.351-22.464-4.853-34.923-3.795-8.624.733-16.631 2.485-24.155 4.131l-.01.003c-1.033.226-2.057.45-3.072.669-8.454 1.825-16.279 3.305-23.906 2.913-19.294-.993-27.962-.192-36.021 5.661-3.96 2.877-7.734 6.944-12.58 12.436-.89 1.011-1.82 2.072-2.796 3.185-4.351 4.966-9.624 10.985-16.55 18.271l-.283.297 1.788 1.699.283-.298c6.962-7.324 12.27-13.382 16.622-18.35l.008-.009c.97-1.108 1.894-2.162 2.777-3.163 4.867-5.516 8.472-9.379 12.18-12.073 7.279-5.287 15.108-6.189 34.446-5.194 7.991.411 16.11-1.142 24.552-2.965 1.019-.22 2.043-.444 3.073-.669l.011-.003c7.541-1.649 15.391-3.366 23.841-4.084 12.077-1.026 23.332 1.402 34.285 3.768l.755.163.528.113c11.284 2.431 22.325 4.665 33.272 2.421 12.683-2.6 22.442-12.286 30.182-21.927 2.673-3.328 5.138-6.696 7.405-9.793l.003-.004c1.022-1.395 2.003-2.736 2.946-3.995 3.087-4.12 5.698-7.272 8.002-8.86l.338-.233Z"/><path fill="url(#t)" d="m280.055 101.897-1.467-1.982-.33.244a343.983 343.983 0 0 0-3.43 2.587l-.007.006c-10.088 7.67-26.931 20.468-46.897 24.858-9.592 2.108-20.616-.392-32.492-3.279l-1.336-.325-.035-.009c-11.349-2.764-23.365-5.691-35.029-4.631-8.933.812-16.84 4.315-25.195 8.016l-.031.014-.504.223-.451.2c-8.762 3.877-18.182 7.923-30.187 9.638-1.953.279-3.741.478-5.436.667l-.014.002c-5.65.63-10.258 1.144-16.292 4.12-7.79 3.843-17.98 11.775-36.467 29.235l-.3.283 1.694 1.792.299-.282c18.5-17.473 28.448-25.158 35.865-28.816 5.621-2.773 9.772-3.239 15.346-3.863h.002c1.722-.193 3.579-.401 5.652-.697 12.37-1.767 22.06-5.941 30.836-9.824l.862-.382c8.465-3.749 16.032-7.096 24.544-7.87 11.236-1.022 22.888 1.811 34.358 4.604l.031.008 1.205.293c11.743 2.854 23.353 5.544 33.604 3.291 20.54-4.515 37.811-17.656 47.86-25.302l.018-.013.002-.002.001-.001c1.245-.947 2.376-1.808 3.391-2.559l.33-.244Z"/><path fill="url(#u)" d="m291.683 107.419-1.367-2.052-.342.228c-8.354 5.569-13.973 12.454-19.45 19.166l-.014.016-.002.003c-1.114 1.365-2.222 2.723-3.347 4.063-6.673 7.946-14.01 15.366-26.671 20.19-9.846 3.751-19.932 2.967-30.935 1.438a615.482 615.482 0 0 1-4.893-.706l-.018-.003c-9.549-1.404-19.776-2.909-30.81-1.971-19.411 1.649-40.241 2.783-55.77 1.984-19.335-.994-28 .227-36.055 6.509-3.948 3.08-7.717 7.349-12.557 12.989l-1.519 1.773-.017.02c-4.583 5.353-10.196 11.908-17.799 19.906l-.283.298 1.787 1.699.284-.298c7.648-8.047 13.298-14.646 17.883-20l.001-.001.018-.022 1.516-1.769c4.872-5.677 8.483-9.749 12.203-12.65 7.283-5.681 15.114-6.984 34.412-5.991 15.705.808 36.675-.339 56.105-1.99 10.726-.912 20.66.546 30.229 1.952 1.658.244 3.306.486 4.944.714 11.027 1.532 21.669 2.416 32.152-1.577 13.231-5.04 20.894-12.827 27.681-20.908a385.959 385.959 0 0 0 3.41-4.138l.003-.003c5.484-6.716 10.859-13.294 18.879-18.641l.342-.228Z"/><path fill="url(#v)" d="m299.874 111.153-1.294-2.099-.35.216c-14.233 8.774-21.439 16.746-27.716 23.691l-.014.015c-.404.447-.804.89-1.202 1.328-6.522 7.184-12.428 13.185-25.109 18.016-9.972 3.799-19.879 4.821-31.108 5.136-3.778.106-7.711.132-11.847.159h-.004c-8.117.052-17.004.11-26.965.792-1.566.108-3.058.214-4.49.315l-.056.004c-16.285 1.157-24.909 1.77-48.2-2.358-19.068-3.379-28.187-3.041-36.778 3.027-4.208 2.972-8.242 7.285-13.285 12.997-1.042 1.18-2.13 2.423-3.273 3.729l-.006.007c-4.415 5.045-9.67 11.051-16.4 18.132l-.284.298 1.787 1.699.283-.298c6.77-7.121 12.061-13.169 16.477-18.216l.002-.002c1.143-1.306 2.226-2.544 3.262-3.717 5.062-5.733 8.92-9.832 12.86-12.615 7.703-5.441 15.902-5.984 34.925-2.612 23.583 4.179 32.426 3.552 48.828 2.387 1.443-.102 2.943-.209 4.517-.317 9.889-.677 18.651-.733 26.738-.786h.001c4.15-.026 8.124-.052 11.977-.16 11.328-.318 21.56-1.351 31.917-5.296 13.21-5.033 19.428-11.361 26.057-18.664l.701-.773.514-.568c6.239-6.903 13.253-14.663 27.185-23.251l.35-.216Z"/><path fill="url(#w)" d="m305.162 118.201-1.159-2.176-.363.193c-19.032 10.137-27.137 17.714-33.715 23.981l-.355.339c-6.309 6.012-11.254 10.725-23.739 15.481-20.208 7.698-39.211 12.26-69.1 14.307-9.558.655-16.406-.452-24.066-2.295-2.075-.499-4.213-1.054-6.486-1.643l-.004-.001c-6.133-1.591-13.226-3.431-22.572-5.087-19.042-3.374-28.265-3.351-36.967 2.388-4.273 2.819-8.367 6.979-13.458 12.582-1.487 1.638-3.064 3.403-4.76 5.301l-.003.004c-4.135 4.629-8.982 10.056-14.997 16.384l-.283.298 1.787 1.699.283-.298c6.043-6.357 10.926-11.825 15.066-16.459l.001-.002c1.693-1.894 3.26-3.649 4.731-5.269 5.097-5.61 9.006-9.553 12.99-12.181 7.815-5.154 16.132-5.394 35.18-2.019 9.244 1.639 16.218 3.447 22.336 5.034l.002.001c2.286.592 4.455 1.155 6.577 1.666 7.814 1.88 14.925 3.034 24.812 2.357 30.114-2.063 49.358-6.672 69.808-14.462 12.946-4.932 18.169-9.908 24.579-16.017l.339-.322c6.471-6.166 14.396-13.589 33.174-23.591l.362-.193Z"/><path fill="url(#x)" d="m309.272 129.709-1.159-2.177-.363.194c-29.472 15.697-35.712 18.904-49.105 25.786l-.002.001-.002.002-.035.018a7628.346 7628.346 0 0 0-13.722 7.064c-19.108 9.862-38.209 13.432-68.153 15.483-9.558.654-16.406-.452-24.066-2.295-2.075-.499-4.213-1.054-6.486-1.643l-.003-.001c-6.134-1.591-13.227-3.431-22.573-5.087-19.042-3.375-28.265-3.351-36.967 2.388-4.273 2.819-8.367 6.979-13.458 12.582-1.488 1.638-3.065 3.404-4.761 5.303l-.002.002c-4.135 4.629-8.982 10.055-14.997 16.384l-.283.298 1.787 1.698.283-.297c6.043-6.358 10.927-11.825 15.066-16.459l.001-.002c1.693-1.894 3.26-3.649 4.731-5.269 5.097-5.61 9.006-9.553 12.99-12.181 7.815-5.154 16.132-5.395 35.18-2.019 9.244 1.638 16.218 3.447 22.336 5.034 2.287.593 4.456 1.156 6.579 1.666 7.814 1.881 14.925 3.035 24.812 2.358 30.06-2.059 49.561-5.659 69.115-15.752 5.61-2.896 9.966-5.134 13.751-7.079l.005-.003c13.401-6.887 19.653-10.1 49.138-25.804l.363-.193Z"/><path fill="url(#y)" d="m308.484 135.469-.365.189c-18.977 9.848-29.067 14.184-37.606 17.664-1.164.475-2.3.934-3.427 1.389-7.167 2.895-13.954 5.637-25.067 11.222-19.287 9.695-35.576 14.949-65.429 16.673-9.565.552-16.401-.628-24.041-2.553-2.069-.521-4.201-1.099-6.468-1.712l-.002-.001h-.001c-6.116-1.657-13.189-3.572-22.517-5.329-19.005-3.578-28.227-3.653-36.99 1.992-4.304 2.773-8.442 6.889-13.592 12.437a869.404 869.404 0 0 0-4.82 5.254c-4.184 4.584-9.089 9.959-15.171 16.222l-.287.295 1.77 1.718.286-.295c6.11-6.292 11.052-11.707 15.24-16.296v-.001l.002-.001.002-.002a835.976 835.976 0 0 1 4.785-5.216c5.157-5.555 9.108-9.456 13.12-12.042 7.869-5.069 16.188-5.221 35.199-1.641 9.226 1.737 16.18 3.62 22.281 5.272l.006.002c2.277.617 4.439 1.202 6.554 1.735 7.794 1.964 14.893 3.195 24.786 2.623 30.191-1.743 46.808-7.085 66.394-16.93 11.021-5.54 17.729-8.249 24.881-11.139l.015-.006.016-.006c1.118-.452 2.247-.908 3.406-1.38 8.607-3.509 18.764-7.876 37.811-17.759l.365-.19-1.136-2.188Z"/><path fill="url(#z)" d="m308.273 140.452-.328.247c-17.508 13.189-28.026 16.682-37.057 18.887a258.13 258.13 0 0 1-3.682.863c-7.7 1.768-15.023 3.449-25.33 10.5-17.654 12.079-35.289 14.856-65.286 16.588-9.565.553-16.401-.627-24.041-2.552-2.069-.521-4.201-1.099-6.468-1.713h-.002l-.001-.001c-6.116-1.656-13.189-3.572-22.517-5.328-19.005-3.578-28.227-3.654-36.99 1.992-4.304 2.773-8.442 6.889-13.592 12.437a869.404 869.404 0 0 0-4.82 5.254c-4.184 4.584-9.089 9.958-15.171 16.222l-.287.295 1.77 1.718.286-.295c6.11-6.292 11.052-11.707 15.24-16.296v-.001l.002-.001.002-.002a835.976 835.976 0 0 1 4.785-5.216c5.157-5.556 9.108-9.457 13.12-12.042 7.869-5.069 16.188-5.221 35.199-1.642 9.226 1.738 16.18 3.621 22.281 5.273l.006.002c2.277.617 4.439 1.202 6.554 1.735 7.794 1.964 14.893 3.194 24.786 2.623 30.046-1.735 48.283-4.525 66.537-17.015 9.911-6.781 16.836-8.372 24.474-10.127l.004-.001c1.218-.28 2.456-.564 3.726-.874 9.347-2.283 20.173-5.918 37.956-19.313l.328-.247-1.484-1.97Z"/><path fill="url(#A)" d="m309.802 148.106-1.606-1.872-.312.268c-8.779 7.533-15.099 11.725-20.153 14.153-5.023 2.414-8.843 3.109-12.693 3.58-.646.079-1.294.151-1.953.225l-.014.002c-3.286.368-6.794.761-11.099 2.07-5.182 1.576-11.481 4.463-20.08 10.161-17.848 11.826-35.323 14.867-65.302 16.598-9.565.552-16.401-.627-24.041-2.552a390.002 390.002 0 0 1-6.468-1.713l-.002-.001h-.001c-6.116-1.656-13.189-3.572-22.517-5.328-19.005-3.578-28.227-3.654-36.99 1.992-4.304 2.772-8.442 6.889-13.592 12.437-1.506 1.622-3.103 3.372-4.82 5.254-4.184 4.584-9.089 9.958-15.171 16.222l-.287.294 1.77 1.718.286-.294c6.11-6.293 11.052-11.707 15.24-16.297l.002-.001.002-.002a866.99 866.99 0 0 1 4.785-5.217c5.157-5.555 9.108-9.456 13.12-12.041 7.869-5.07 16.188-5.221 35.199-1.642 9.226 1.737 16.18 3.621 22.281 5.273l.006.002c2.277.616 4.439 1.202 6.554 1.735 7.794 1.964 14.893 3.194 24.786 2.623 30.065-1.736 48.101-4.798 66.522-17.005 8.456-5.603 14.538-8.368 19.436-9.857 4.073-1.239 7.355-1.608 10.632-1.975l.011-.002c.666-.074 1.332-.149 2.004-.231 4.003-.49 8.111-1.234 13.462-3.805 5.321-2.557 11.825-6.896 20.691-14.505l.312-.267Z"/></g><path fill="white" d="m52.53 180.653-.147 2.759-.367.29c-.735 0-1.47.049-2.204.145-.686.049-1.25.242-1.69.581a11.01 11.01 0 0 0-1.25 1.307c-.391.532-.66 1.476-.807 2.831a156.31 156.31 0 0 1-.147 1.887c0 .581-.025 1.259-.074 2.033V217.603c.05 1.742.074 3.242.074 4.501.049 1.21.098 2.298.147 3.266.098.968.196 2.033.294 3.194l-.588.363-9.037-.363-.735-.871-22.701-33.828c.098.871.147 2.275.147 4.211.049 1.887.073 4.089.073 6.605v10.599c.05 1.016.074 2.008.074 2.976.049.92.098 1.67.147 2.251.097 1.21.367 2.129.808 2.758.44.629.906 1.089 1.396 1.379.391.388.906.605 1.542.654.637.048 1.445.072 2.425.072l.367.291.22 2.758-.146.291c-.392 0-.955-.025-1.69-.073-.686-.048-1.42-.097-2.204-.145l-2.204-.145c-.686-.049-1.2-.073-1.543-.073H8.375c-.342 0-.906.024-1.69.073-.783.048-1.591.096-2.424.145-.832.048-1.64.097-2.424.145-.784.048-1.347.073-1.69.073L0 228.419l.22-2.758.368-.291c.881 0 1.616-.024 2.204-.072a3.977 3.977 0 0 0 1.69-.654c.342-.242.759-.629 1.249-1.161.49-.581.808-1.573.955-2.976.049-.339.073-.726.073-1.162a17.65 17.65 0 0 0 .074-1.742v-25.19c0-.822-.025-1.524-.074-2.105 0-.581-.024-1.161-.073-1.742-.098-1.016-.392-1.887-.882-2.613-.44-.726-.882-1.234-1.322-1.525-.441-.387-1.005-.605-1.69-.653a29.113 29.113 0 0 0-2.204-.073l-.368-.29-.22-2.759.147-.29c.343 0 .833.024 1.47.073a1421.107 1421.107 0 0 1 4.04.29c.686.048 1.2.073 1.543.073h6.245c.391 0 .881-.025 1.47-.073a11.677 11.677 0 0 0 1.542-.218l.367.218c.147.677.514 1.621 1.102 2.831a120.146 120.146 0 0 0 2.13 3.993c.883 1.451 1.813 3 2.793 4.646l2.938 4.791a562.79 562.79 0 0 0 4.702 7.622 322.166 322.166 0 0 0 3.674 5.59 252.843 252.843 0 0 0 2.792 4.065 951.74 951.74 0 0 0 1.983 2.686v-3.703a91.47 91.47 0 0 0 .074-3.702V195.39c0-1.162-.025-2.154-.074-2.977 0-.822-.024-1.524-.073-2.105 0-.581-.025-1.161-.074-1.742a6.69 6.69 0 0 0-.66-2.25c-.295-.726-.785-1.356-1.47-1.888-.441-.387-1.029-.605-1.764-.653a31.022 31.022 0 0 0-2.204-.073l-.293-.29-.22-2.759.146-.29c.343 0 .833.024 1.47.073l1.91.145c.685.048 1.346.097 1.983.145a21.14 21.14 0 0 0 1.47.073h7.861c.636-.049 1.298-.097 1.983-.146a288.45 288.45 0 0 0 1.984-.145 24.638 24.638 0 0 0 1.47-.145l.073.29ZM89.809 180l12.636 32.957c.441 1.21.833 2.226 1.176 3.049.343.823.612 1.524.808 2.105.245.581.441 1.065.588 1.452.196.339.367.653.514.944.588 1.21 1.175 2.153 1.763 2.831.637.629 1.249 1.113 1.837 1.452.637.29 1.273.459 1.91.508.637.048 1.274.072 1.91.072l.368.291.22 2.758-.147.291c-.343 0-.857-.025-1.543-.073-.685-.048-1.396-.097-2.13-.145-.735-.049-1.445-.097-2.131-.145a20.522 20.522 0 0 0-1.469-.073h-5.364c-.342 0-.906.024-1.69.073-.783.048-1.616.096-2.497.145-.833.048-1.641.097-2.425.145-.783.048-1.347.073-1.69.073l-.146-.291.22-2.758.294-.291c1.273 0 2.228-.145 2.865-.435.686-.339 1.029-1.21 1.029-2.614 0-.774-.147-1.863-.441-3.266-.245-1.452-.857-3.243-1.837-5.372l-1.543-3.484H80.037l-1.469 3.484c-.882 2.129-1.543 3.944-1.984 5.444-.44 1.501-.66 2.565-.66 3.194 0 1.162.244 1.96.734 2.396.49.436 1.371.653 2.645.653l.367.291.22 2.758-.146.291c-.343 0-.882-.025-1.617-.073a820.58 820.58 0 0 1-4.629-.29 26.977 26.977 0 0 0-1.616-.073h-4.334c-.343 0-.857.024-1.543.073-.686.048-1.396.096-2.13.145-.735.048-1.446.097-2.131.145a21.14 21.14 0 0 1-1.47.073l-.073-.291.147-2.758.367-.291c.637 0 1.274-.048 1.91-.145a5.97 5.97 0 0 0 1.91-.653 7.948 7.948 0 0 0 1.837-1.379c.637-.63 1.274-1.428 1.91-2.396l.662-1.307c.294-.629.759-1.718 1.396-3.266a537.503 537.503 0 0 0 2.644-6.606 7656.44 7656.44 0 0 0 4.482-11.397l6.318-16.043L89.001 180h.808Zm-8.523 24.899h9.625l-4.702-12.849-4.923 12.849ZM162.779 185.299c-.441.291-1.102.823-1.984 1.597a75.427 75.427 0 0 0-2.792 2.759 234.592 234.592 0 0 0-3.306 3.339 246.103 246.103 0 0 1-3.306 3.485l-4.996 5.226a214.496 214.496 0 0 1 5.364 8.203 60.468 60.468 0 0 0 6.097 7.84 42.884 42.884 0 0 0 2.866 2.976 22.149 22.149 0 0 0 3.085 2.178 24.817 24.817 0 0 0 3.453 1.525c1.225.387 2.621.701 4.188.943l.441.291.147 2.758-.147.291h-2.351c-.833.048-1.69.096-2.571.145-.833.048-1.617.072-2.351.072-.735.049-1.347.073-1.837.073-1.274 0-2.449-.169-3.527-.508-1.077-.291-2.13-.799-3.159-1.525-.979-.726-1.983-1.693-3.012-2.903s-2.155-2.686-3.38-4.428c-.293-.436-.808-1.186-1.542-2.251a279.02 279.02 0 0 0-2.278-3.629l-2.498-3.92a132.29 132.29 0 0 0-2.204-3.485l-1.763 1.597c-.588.484-1.151.992-1.69 1.525V217.385c.049.629.074 1.162.074 1.597.049.387.098.896.147 1.525.097 1.403.318 2.371.661 2.903.343.533.71.944 1.102 1.234.441.388 1.004.605 1.69.654a34.91 34.91 0 0 0 2.277.072l.294.291.22 2.758-.147.291c-.342 0-.906-.025-1.689-.073-.784-.048-1.592-.097-2.425-.145-.832-.049-1.641-.097-2.424-.145a30.653 30.653 0 0 0-1.69-.073h-4.335c-.343 0-.906.024-1.689.073-.784.048-1.592.096-2.425.145-.833.048-1.641.097-2.424.145-.784.048-1.347.073-1.69.073l-.147-.291.22-2.758.368-.291c.783 0 1.518-.024 2.204-.072.685-.097 1.249-.315 1.69-.654a6.03 6.03 0 0 0 1.102-1.306c.391-.533.636-1.476.734-2.831v-1.162c.049-.484.074-1.065.074-1.742.049-.678.073-1.5.073-2.468v-22.722c0-.822-.024-1.524-.073-2.105 0-.581-.025-1.161-.074-1.742-.098-1.307-.343-2.25-.734-2.831-.343-.581-.711-1.016-1.102-1.307-.441-.387-1.005-.605-1.69-.653a31.04 31.04 0 0 0-2.204-.073l-.368-.29-.22-2.759.147-.29c.343 0 .906.024 1.69.073.783.048 1.591.096 2.424.145.833.048 1.641.097 2.425.145.783.048 1.346.073 1.689.073h4.335c.343 0 .906-.025 1.69-.073.783-.048 1.592-.097 2.424-.145.833-.049 1.641-.097 2.425-.145a30.627 30.627 0 0 1 1.689-.073l.147.29-.22 2.759-.294.29c-.686 0-1.42.049-2.204.145-.735.049-1.322.242-1.763.581a7.935 7.935 0 0 0-1.176 1.307c-.343.532-.538 1.476-.587 2.831l-.147 1.742c0 .532-.025 1.186-.074 1.96v9.655c.98-.484 2.106-1.21 3.38-2.178a76.402 76.402 0 0 0 3.82-3.266 77.933 77.933 0 0 0 2.865-2.832 64.203 64.203 0 0 0 2.645-3.048c.833-.968 1.494-1.839 1.984-2.614.49-.774.734-1.306.734-1.597 0-.532-.122-.944-.367-1.234a2.013 2.013 0 0 0-.881-.798c-.343-.194-.76-.339-1.249-.436l-1.47-.29-.367-.291v-2.758l.367-.291c.98.194 2.008.315 3.086.363 1.126.049 2.253.073 3.379.073h8.008c.441 0 .858-.024 1.249-.073.441-.048.907-.096 1.396-.145.49-.048 1.078-.121 1.764-.218l.293.291v2.758l-.293.291c-.686.096-1.568.29-2.645.58-1.029.291-1.91.654-2.645 1.089ZM232.448 228.71c-.343 0-.906-.025-1.69-.073-.783-.048-1.592-.097-2.424-.145-.833-.049-1.641-.097-2.425-.145a30.627 30.627 0 0 0-1.689-.073h-4.335c-.343 0-.906.024-1.69.073-.783.048-1.592.096-2.424.145-.833.048-1.641.097-2.425.145-.783.048-1.347.073-1.689.073l-.147-.291.22-2.758.294-.291c.784 0 1.518-.024 2.204-.072.686-.097 1.273-.315 1.763-.654a3.414 3.414 0 0 0 1.029-1.306c.245-.533.489-1.476.734-2.831.049-.339.074-.726.074-1.162.049-.484.073-1.065.073-1.742.049-.678.074-1.5.074-2.468V205.698h-21.747V217.022c.049.726.074 1.355.074 1.888.049.484.098 1.016.147 1.597.098 1.355.318 2.298.661 2.831.343.532.71.968 1.102 1.306.441.339 1.004.557 1.69.654a34.91 34.91 0 0 0 2.277.072l.294.291.22 2.758-.147.291c-.342 0-.906-.025-1.689-.073-.784-.048-1.592-.097-2.425-.145-.832-.049-1.641-.097-2.424-.145a30.653 30.653 0 0 0-1.69-.073h-4.335c-.342 0-.906.024-1.689.073-.784.048-1.592.096-2.425.145-.833.048-1.641.097-2.424.145-.784.048-1.347.073-1.69.073l-.147-.291.22-2.758.368-.291c.783 0 1.518-.024 2.204-.072.685-.097 1.249-.315 1.69-.654a6.03 6.03 0 0 0 1.102-1.306c.391-.533.636-1.476.734-2.831v-1.162c.049-.484.074-1.065.074-1.742.049-.678.073-1.5.073-2.468V195.39a51.23 51.23 0 0 0-.073-2.977c0-.822-.025-1.524-.074-2.105 0-.581-.024-1.161-.073-1.742-.098-1.258-.319-2.178-.661-2.759-.343-.58-.711-1.04-1.102-1.379-.441-.339-1.005-.532-1.69-.581a15.922 15.922 0 0 0-2.204-.145l-.368-.29-.22-2.759.147-.29c.343 0 .906.024 1.69.073.783.048 1.591.096 2.424.145.833.048 1.641.097 2.425.145.783.048 1.347.073 1.689.073h4.335c.343 0 .906-.025 1.69-.073.783-.048 1.592-.097 2.424-.145.833-.049 1.641-.097 2.425-.145a30.627 30.627 0 0 1 1.689-.073l.147.29-.22 2.759-.294.29c-.686 0-1.42.049-2.204.145-.735.049-1.322.242-1.763.581a7.935 7.935 0 0 0-1.176 1.307c-.343.532-.538 1.476-.587 2.831-.049.677-.098 1.307-.147 1.887 0 .581-.025 1.259-.074 2.033V200.326h21.747v-4.936c0-1.162-.025-2.154-.074-2.977 0-.822-.024-1.524-.073-2.105 0-.581-.025-1.161-.074-1.742-.098-1.355-.318-2.299-.661-2.831a6.01 6.01 0 0 0-1.102-1.307c-.441-.339-1.028-.532-1.763-.581a15.912 15.912 0 0 0-2.204-.145l-.294-.29-.22-2.759.147-.29c.342 0 .906.024 1.689.073.784.048 1.592.096 2.425.145.832.048 1.641.097 2.424.145.784.048 1.347.073 1.69.073h4.335c.342 0 .906-.025 1.689-.073.784-.048 1.592-.097 2.425-.145.832-.049 1.641-.097 2.424-.145a30.653 30.653 0 0 1 1.69-.073l.147.29-.22 2.759-.368.29c-.783 0-1.543.049-2.277.145-.686.049-1.225.242-1.617.581a6.038 6.038 0 0 0-1.102 1.307c-.294.532-.538 1.476-.734 2.831-.049.677-.098 1.307-.147 1.887v28.457c.049.484.098 1.016.147 1.597.098 1.355.318 2.298.661 2.831.392.532.784.968 1.175 1.306.441.339 1.004.557 1.69.654.686.048 1.421.072 2.204.072l.368.291.22 2.758-.147.291ZM271.27 180l12.636 32.957c.441 1.21.833 2.226 1.176 3.049.343.823.612 1.524.808 2.105.245.581.441 1.065.588 1.452.196.339.367.653.514.944.588 1.21 1.175 2.153 1.763 2.831.637.629 1.249 1.113 1.837 1.452.637.29 1.273.459 1.91.508.637.048 1.274.072 1.91.072l.368.291.22 2.758-.147.291c-.343 0-.857-.025-1.543-.073-.685-.048-1.396-.097-2.13-.145-.735-.049-1.445-.097-2.131-.145a20.522 20.522 0 0 0-1.469-.073h-5.363c-.343 0-.907.024-1.69.073-.784.048-1.617.096-2.498.145-.833.048-1.641.097-2.425.145-.783.048-1.347.073-1.689.073l-.147-.291.22-2.758.294-.291c1.273 0 2.228-.145 2.865-.435.686-.339 1.029-1.21 1.029-2.614 0-.774-.147-1.863-.441-3.266-.245-1.452-.857-3.243-1.837-5.372l-1.543-3.484h-12.857l-1.469 3.484c-.882 2.129-1.543 3.944-1.984 5.444-.44 1.501-.661 2.565-.661 3.194 0 1.162.245 1.96.735 2.396.49.436 1.371.653 2.645.653l.367.291.221 2.758-.147.291c-.343 0-.882-.025-1.617-.073a819.832 819.832 0 0 1-4.628-.29 27.004 27.004 0 0 0-1.617-.073h-4.334c-.343 0-.857.024-1.543.073-.686.048-1.396.096-2.131.145-.734.048-1.444.097-2.13.145a21.16 21.16 0 0 1-1.47.073l-.073-.291.147-2.758.367-.291c.637 0 1.274-.048 1.91-.145a5.974 5.974 0 0 0 1.911-.653 7.945 7.945 0 0 0 1.836-1.379c.637-.63 1.274-1.428 1.911-2.396l.661-1.307c.294-.629.759-1.718 1.396-3.266a543.632 543.632 0 0 0 2.644-6.606c1.127-2.856 2.621-6.655 4.482-11.397l6.318-16.043 5.217-2.178h.808Zm-8.523 24.899h9.625l-4.702-12.849-4.923 12.849Z"/><path fill="#262322" d="M271.279 218.603c.557.707 1.747 1.489 4.693.428l.526 3.139c-.754-.132-2.068.139-3.065-.107-.829-.205-2.839-2.002-3.15-3.706-.04-.216-.118-1.168.492-1.993-.018.511.058 1.674.504 2.239ZM278.191 225.19c-1.686-.199-4.96-.33-5.925-3.009.043 1.8.933 5.111 6.333 4.981l-.408-1.972ZM284.433 224.668c-1.126 1.27-1.677 3.114-4.474 2.911 1.458.686 2.744 1.735 6.325-2.12l-1.851-.791Z"/><path fill="#AB7900" d="M284.978 200.355c.171-.365-7.686-16.294-13.527-23.267l-3.611-4.146 13.359-2.392-1.552 6.611.965 2.678 6.046 11.741 3.987 8.548 2.326 3.096.6 2.507-1.788 4.275.183 3.868-.717 3.889-2.205 5.636-2.978 3.493-1.875.675-.943-1.778.685-1.457 1.147-1.018 1.809-3.375-2.099 2.571-1.607.579-2.27 2.937-2.486 1.5-1.285-1.05-.312-1.703 1.607-.579 2.539-3.033 2.613-3.664.299-2.529-2.077 3.472-4.027 4.779-2.068.14-1.19-.782.321-1.628-1.018-1.146.225-1.897 2.678-.965 2.299-3.836 1.417-2.646 1.585-1.479-.986-3.578-1.65-1.221-.579-1.607-2.186-1.028c1.73-5.949 6.284-3.273 8.346-1.191Z"/><mask id="B" width="21" height="61" x="276" y="168" maskUnits="userSpaceOnUse" style="mask-type:alpha"><path fill="#D9D9D9" d="m276.175 175.083 1.596-4.811 6.159-2.219-.008 10.896 12.989 15.896-.681 16.585-5.643 16.254-10.145 1.234-.676-1.874.396-2.261 2.635-2.765 2.934-5.293 1.692-4.543 1.542-3.279.191-7.028-4.545-9.256-3.312-6.673-3.58-6.578-1.544-4.285Z"/></mask><g mask="url(#B)"><path fill="#BE8900" d="M284.977 200.355c.172-.365-7.685-16.294-13.526-23.267l-3.611-4.146 13.359-2.392-1.552 6.611.965 2.678 6.045 11.741 3.988 8.548 2.326 3.096.6 2.507-1.788 4.275.183 3.867-.717 3.89-2.205 5.636-2.978 3.493-1.875.675-.943-1.778.685-1.457 1.146-1.018 1.81-3.375-2.099 2.571-1.607.579-2.27 2.936-2.486 1.501-1.286-1.05-.311-1.703 1.607-.579 2.539-3.033 2.613-3.664.299-2.529-2.077 3.472-4.028 4.779-2.067.14-1.19-.782.321-1.628-1.018-1.146.225-1.897 2.678-.965 1.885-4.007 2.142-.772-.311-1.703 1.585-1.479-.986-3.578-1.65-1.221-.579-1.607-2.186-1.028c1.73-5.949 6.284-3.273 8.345-1.191Z"/></g><path fill="#262322" d="M211.571 187.377c1.016.146 2.56-.716 3.597-1.715l.992 1.419c-1.076.829-3.475 1.972-4.589.296ZM227.271 191.463c-.356-.963.165-2.653.925-3.877l-1.596-.673c-.585 1.226-1.201 3.811.671 4.55ZM217.462 199.227c1.055-1.487 2.462-2.778 3.398-5.711l-1.76-.977c-.586 1.057-1.289 2.739-1.638 6.688Z"/><path fill="#AB7900" d="m230.579 168.523 2.734-4.929-4.651-3.178-1.787 6.973-2.356 1.685-2.774 3.756-3.281 5.086-1.092 4.458-1.095.314-.976 1.76-1.25 1.839 1.565 1.328 3.753-1.371 1.078-1.217 1.11-2.739-.033.415-.903 3.775-1.132 3.285-1.367 2.464.314 1.095 2.386 1.093.821-.235.781-1.408.858-3.207 1.795-4.068 2.032-3.247-1.289 2.738-.155 1.525.47 1.642 1.682.703.938-.861.507-1.33.546-2.229 1.249-3.911-.119-1.447.818-4.38.077-1.799-1.254-4.378Z"/><path fill="#048563" d="m301.754 96.121-13.328-11.114-5.835 1.575 4.103 11.725 13.787 8.174 1.273-10.36Z"/><mask id="C" width="32" height="61" x="286" y="81" maskUnits="userSpaceOnUse" style="mask-type:alpha"><path fill="#06A77D" d="m303 89.5-16.26-8.42 4.46 7.247 3.538 4.993 4.974 3.352-.852 1.482 1.741 2.973-2.644 7.6 2.955 24.869 9.095 8.187L315 137l2.5-5.5-2.5-17-12-25Z"/></mask><g mask="url(#C)"><path fill="#06A77D" d="M311.605 109.426c-3.529-8.438-5.993-18.728-27.917-26.897l-1.329 11.314c7.225 14.014 19.089 38.927 21.572 40.503 8.309 5.27 10.541 3.102 12.648-1.848 1.444-3.394-2.747-17.746-4.974-23.072Z"/></g><path fill="#048563" d="m306.543 109.227-8.151-4.686 5.933 31.264 6.331 1.421-.315-1.167 1.806-1.426-1.214-2.177 2.941.459-.921-2.256 1.088-.606-.338-2.413 1.009-.899-3.357-3.162.852-1.482-1.561-1.144-.63-2.334-3.144-3.534 1.009-.898-2.269-3.77.931-1.19Z"/><mask id="D" width="52" height="93" x="198" y="36" maskUnits="userSpaceOnUse" style="mask-type:alpha"><path fill="#06A77D" d="m240.11 64.867 9.378-27.883-20.567 9.619-5.233 14.245-1.31 24.141-24.326 28.162 8.785 15.157 23.766-26.758 1.514-1.348 2.626-.709 11.869-8.21 1.797-17.7-8.299-8.716Z"/></mask><mask id="E" width="52" height="93" x="198" y="36" maskUnits="userSpaceOnUse" style="mask-type:alpha"><path fill="#06A77D" d="m240.11 64.867 9.378-27.883-20.567 9.619-5.233 14.245-1.31 24.141-24.326 28.162 8.785 15.157 23.766-26.758 1.514-1.348 2.626-.709 11.869-8.21 1.797-17.7-8.299-8.716Z"/></mask><g mask="url(#E)"><path fill="#06A77D" d="M206.355 110.284c6.345-13.606 8.544-13.574 24.966-29.273l6.53 16.079c-8.453 9.271-24.893 27.688-26.526 28.129-2.043.551-11.314-1.329-4.97-14.935Z"/></g><path fill="#048563" d="m231.459 91.929 10.669-1.026-33.059 35.238-3.085-4.472 2.812-1.871-.349-2.245 2.328-2.852-.168-2.805 1.972-1.158.725-2.905 3.262-.304-.629-2.334 2.886-1.092-.677-2.511 3.145-2.957 1.22-2.438 9.414-2.54-.466-1.728Z"/><mask id="F" width="88" height="57" x="208" y="126" maskUnits="userSpaceOnUse" style="mask-type:alpha"><path fill="#262322" d="m294.262 182.027 1.672-40.202-24.902-14.564-35.353-1.102-26.827 31.653 33.603 21.294 51.807 2.921Z"/></mask><g mask="url(#F)"><path fill="#262322" d="M209.874 142.248c8.422 21.02 40.839 36.342 66.176 34.163 27.327-2.35 36.581-37.665 30.487-60.248-6.095-22.583-33.242-34.898-59.732-27.75-26.491 7.15-45.632 32.119-36.931 53.835Z"/></g><mask id="G" width="109" height="87" x="202" y="87" maskUnits="userSpaceOnUse" style="mask-type:alpha"><path fill="#2274A5" d="m299.791 96.964-17.997-9.855-42.698 9.958-3.737.07-1.222 1.268-1.033-.347-2.468 1.292.963-3.39-11.365 7.762-17.63 21.659 4.516 26.013 15.718 9.53 1.264-6.914 5.483-8.678 5.353.12 3.4-2.482 5.835-1.575 1.996-3.043 4.983-.092 3.477-2.191 6.702 1.635 6.664-4.303 6.724 2.881 3.853 6.159 6.039 1.5 1.181 4.377 3.154.088.217 7.766 1.941-2.089.708 2.626 2.626-.708-3.195 5.557 1.82 3.265-3.07 8.34 16.838-12.995 3.676-26.971-2.538-22.164-7.692-7.627-.472-1.751.717-.819-1.37-2.76.639-1.112Z"/></mask><g mask="url(#G)"><path fill="#1C6591" d="M209.874 142.248c8.735 20.892 40.839 36.342 66.176 34.163 27.327-2.35 36.581-37.665 30.487-60.248-6.095-22.583-33.242-34.898-59.732-27.75-11.797 3.184-18.133 11.78-25.603 20.056-9.549 7.773-13.022 13.217-13.545 20.557-.469 4.605.449 8.995 2.217 13.222Z"/></g><mask id="H" width="116" height="74" x="197" y="84" maskUnits="userSpaceOnUse" style="mask-type:alpha"><path fill="#2D91CC" d="m312.476 140.491-.112-37.53-14.556-17.982-47.741 2.867-11.156-.745-25.67 15.065-15.56 10.772 8.406 38.109 11.93-1.029 2.334-.63.088-3.153 2.334-.63-.866-3.209 1.505 2.097 1.602-4.501-.037-5.937 4.95 2.107-.125-2.783 1.033.347 4.409-3.381.75-3.019.709 2.626 3.501-.945.064-4.399 10.818-1.668 1.774.774 1.436-1.64 2.436.908.458-2.941 6.229-.116 5.96 1.209 3.691-2.561.63 2.334 1.773.773.616-2.357 8.207 3.733 1.259 4.668 2.043-.552 3.616 5.284 2.988 2.95.629 2.334 3.099 1.042 3.255 1.626-2.468 1.292 3.056 6.687 1.459-.394.69 9.517 8.554-17.019Z"/></mask><g mask="url(#H)"><path fill="#2274A5" d="M209.874 142.248c8.735 20.892 40.839 36.342 66.176 34.163 27.327-2.35 36.581-37.665 30.487-60.248-6.095-22.583-33.242-34.898-59.732-27.75-11.797 3.184-18.133 11.78-25.603 20.056-9.549 7.773-13.022 13.217-13.545 20.557-.469 4.605.449 8.995 2.217 13.222Z"/></g><mask id="I" width="116" height="60" x="199" y="85" maskUnits="userSpaceOnUse" style="mask-type:alpha"><path fill="#2D91CC" d="m303.504 126.481 7.334 14.442 3.86-17.003-5.619-34.054-31.867-1.08-40.04-2.931-36.923 13.406-1.015 21.312 11.258 23.464 1.009-6.431-.472-2.062 3.333-1.692-.607-2.651 2.694.934 3.003-7.197 5.942-3.84 1.843-4.141 5.909 1.438 2.928-3.46 2.08 2.315 4.898-2.981.185-1.902 2.853.277.884-.202 11.094 2.422 1.296-2.466 3.534-.809.472 2.063 6.776-1.55 2.97-1.92 1.768-.404 3.687 2.566 2.643 3.426 4.234.891.522-.429-.337-1.473 2.946-.674 1.49 2.449 3.83-.876 1.213 5.303 3.535-.809 2.291 10.016 2.566-3.687Z"/></mask><g mask="url(#I)"><path fill="#2D91CC" d="M209.874 142.248c8.735 20.892 40.839 36.342 66.176 34.163 27.327-2.35 36.581-37.665 30.487-60.248-6.095-22.583-33.242-34.898-59.732-27.75-11.797 3.184-18.133 11.78-25.603 20.056-9.549 7.773-13.022 13.217-13.545 20.557-.469 4.605.449 8.995 2.217 13.222Z"/><path fill="#048563" d="m231.252 99.07 2.152-1.472-.783-1.956-5.751 3.719.86 1.297 3.522-1.588Z"/></g><mask id="J" width="45" height="59" x="213" y="38" maskUnits="userSpaceOnUse" style="mask-type:alpha"><path fill="#06A77D" d="m213.246 90.584 27.971 6.223 16.741-26.114-8.739-32.385-19.2 4.242-16.773 48.034Z"/></mask><g mask="url(#J)"><path fill="#06A77D" d="M227.744 65.653c-5.5 39.717 10.81 36.809 27.709 38.456 14.231 1.386 35.944 3.644 38.27-17.088.436-3.887-3.407-10.028-4.2-15.563-1.559-10.885-4.254-20.927-9.864-28.218-4.476-5.819-11.365-10.262-16.947-9.229-13.657 2.53-32.859 16.41-34.968 31.642Z"/></g><path fill="#048563" d="m231.635 62.46.829-2.728-1.19-.931.324-2.279.482-1.695 3.005-3.94 3.881-4.178 3.029-2.695 2.681-1.663.686 1.38-8.16 18.478 3.057 6.687 6.441-.486 5.933 11.545-10.397 12.509-7.437 6.076-6.567-2.297 3.432-4.682 3.028-2.696 2.177-1.213-1.056-1.593 2.681-1.663-.393-1.458 1.963-.843-2.325-2.816.112-1.908-1.168.315.774-1.774-2.168-2.232-1.907-.11-.227-4.322-2.358-.616.987-2.144.245-2.57-.394-1.459Z"/><mask id="K" width="66" height="83" x="233" y="28" maskUnits="userSpaceOnUse" style="mask-type:alpha"><path fill="#ECAA00" d="M252.697 36.117c3.589-2.62 10.16-6.81 13.643-7.437l28.073 7.761 4.192 48.01-4.937 2.584-1.593 1.056.834 5.41-2.672-1.784-3.839-1.468 4.571 5.34 1.574 5.835-3.075.204.26 2.121-2.886-1.413-.199 5.062-3.436-3.455-2.501 3.492-3.626-1.838-3.241 3.065-1.561-1.143-3.691 2.561-4.603-3.14-3.122-2.288-2.523 2.246-2.483-3.399-3.098-1.042-.315-1.167-3.501.945-.708-2.626-3.96 3.886-.125-2.784-3.478 2.191-.63-2.334-2.917.787.829-2.728-2.279-.324 1.468-3.839 2.58-3.2-.204-3.075 2.098-1.505-.473-1.75 4.701-3.46-.158-.584-2.01-1.648.829-2.728-1.616-.19 2.186-4.659-2.784.125-3.737.07-.393-1.459-1.325-.268-.338-2.413-3.232-.38.963-3.39-.473-1.75-.046-2.492-.607-1.088c3.631-9.744 9.397-15.055 19.594-22.502Z"/></mask><g mask="url(#K)"><path fill="#ECAA00" d="M227.744 65.653c-5.5 39.717 10.936 40.969 27.834 42.616 7.414.722 2.881 12.995 32.348 5.043 7.058-2.003 4.683-16.36 5.797-26.291.436-3.887-3.407-10.028-4.2-15.563-1.559-10.885-4.254-20.928-9.864-28.218-4.476-5.819-11.365-10.262-16.947-9.229-13.657 2.53-32.859 16.41-34.968 31.642Z"/><path fill="#A53A22" d="m284.721 63.158-2.112-3.186-1.121 2.806-.898-1.01-2.311 1.876-1.412 2.885-.63-2.334-3.51 4.39-1.255 3.47-4.266-.728-2.917.788-1.334 3.176-1.75.473.44 3.95-3.335-1.917-4.251 3.964-10.531 13.17 13.032 22.776 35.261-3.881 3.32-22.493-1.26-4.668-1.046-5.039-2.473-6.844-.945-3.501-1.908-.112-.315-1.167-1.751.473-.722-7.317Z" opacity=".5"/><path fill="#402F06" d="m252.526 70.28-1.459.394-.875.237-.134.662-1.033-.347-.718.82-.662-.135-.347 1.033.37.213-.852 1.482.82.717-.348 1.033-.426.741.528.797-1.38.685 1.112.64-.639 1.11-.876.237.237.875-.876.236.607 1.089-2.075 2.75.125 2.784 10.091 2.597 2.2.033 1.214 2.176 2.153-2.459.908-2.436 1.167-.314-.204-3.076-.181-1.829-1.111-.639-.63-2.334.931-1.19-1.876-2.31-.472-1.752-1.325-.268-1.134-1.885-.315-1.167-2.043.551-.472-1.75Z"/><path fill="#C28C00" d="m263.951 89.42-2.797-4.566-.032 2.2-1.751.473.472 1.75-1.514 1.348-1.009.898-1.561-1.144-1.931-1.357-3.21.866-.551-2.042-2.626.709-.314-1.167.032-2.2-2.918.787-3.908-5.205-6.835 18.747 4.492 5.047 4.904-.384 13.977 6.557 8.169-2.204-1.575-5.835 2.695 3.028 1.232-4.714-5.817-5.316 2.335-.63-2.001-5.094 2.042-.551Z"/></g><mask id="L" width="47" height="31" x="237" y="30" maskUnits="userSpaceOnUse" style="mask-type:alpha"><path fill="#FFC01F" d="m237.915 53.253 1.944-3.14a76.133 76.133 0 0 0 7.637-16.43l17.801-3.679 18.523 6.576-16.453 22.404-2.173 1.76-3.182-4.34-3.26 2.64-.707-1.492-2.032 2.058-2.5-2.104-1.72-2.84-3.377 1.6-3.183 2.837-1.761-2.655-2.044 1.703-1.267-2.374-.125-2.784-2.121.26Z"/></mask><g mask="url(#L)"><path fill="#FFC01F" d="M227.744 65.652c-5.5 39.718 10.936 40.97 27.835 42.617 7.413.722 2.88 12.995 32.347 5.043 7.058-2.004 4.683-16.36 5.797-26.292.436-3.886-3.407-10.027-4.2-15.562-1.558-10.886-4.254-20.928-9.864-28.218-4.476-5.819-11.365-10.262-16.946-9.229-13.658 2.529-32.86 16.409-34.969 31.641Z"/></g><path fill="#262322" d="M289.199 43.795c-1.774-.773-6.062-2.746-17.228-.046l-.639 1.112c-.639 1.111-.088 3.154.07 3.737.157.584-2.501 3.492-3.432 4.682-.744.952-2.851 5.673-3.811 7.915.415-.008 1.347-.113 1.751-.473.504-.449 2.209-3.413 5.946-3.482-.215 1.06-.364 4.063-.278 4.77 1.125-1.243 3.636-3.924 4.677-4.706 1.302-.977 3.21-.866 4.377-1.18 1.167-.316 1.199-2.515 2.209-3.414 1.009-.898 3.871-.732 6.358-8.915Z"/><mask id="M" width="19" height="8" x="273" y="41" maskUnits="userSpaceOnUse" style="mask-type:alpha"><path fill="#D9D9D9" d="M287.577 48.53c.528-3.71.278-3.683-1.374-4.24-3.385-1.137-7.152-.45-10.663-1.098l-1.858-.343 6.671-1.675 10.944 1.116-3.72 6.24Z" opacity=".6"/></mask><g mask="url(#M)"><path fill="#D9D9D9" d="M287.543 43.15c-2.429-.784-6.95-1.485-15.572.6l-.639 1.11c-.639 1.112-.088 3.155.07 3.738.157.584-2.501 3.492-3.432 4.682-.744.952-2.851 5.673-3.811 7.915.415-.008 1.347-.113 1.751-.473.504-.449 2.209-3.413 5.946-3.482-.215 1.06-.364 4.063-.278 4.77 1.125-1.243 3.636-3.924 4.677-4.706 1.302-.977 3.21-.866 4.377-1.18 1.167-.316 1.199-2.515 2.209-3.414.934-.831 3.455-.75 5.797-7.22.345-.955-.129-2.029-1.095-2.34Z"/></g><path stroke="#262322" d="M288.38 43.45c-2.173-.858-6.68-2.053-16.409.3l-.639 1.11c-.639 1.112-.088 3.155.07 3.738.157.584-2.501 3.492-3.432 4.682-.744.952-2.851 5.673-3.811 7.915.415-.008 1.347-.113 1.751-.473.504-.449 2.209-3.413 5.946-3.482-.215 1.06-.364 4.063-.278 4.77 1.125-1.243 3.636-3.924 4.677-4.706 1.302-.977 3.21-.866 4.377-1.18 1.167-.316 1.199-2.515 2.209-3.414.973-.866 3.668-.742 6.088-8.063a.96.96 0 0 0-.549-1.197Z"/><path fill="#262322" d="M247.66 60.369c.585 2.168 2.868 3.878 4.963 3.313 2.095-.566 3.269-2.965 2.623-5.36-.646-2.395-2.785-3.322-4.963-3.313-2.501.011-3.124 3.502-2.623 5.36Z"/><path stroke="#262322" d="M252.753 64.164c-1.221.33-2.465-.012-3.462-.703-.997-.69-1.788-1.757-2.114-2.962-.278-1.03-.242-2.473.199-3.675.443-1.207 1.36-2.308 2.905-2.314 2.302-.01 4.719.983 5.448 3.682.701 2.598-.556 5.32-2.976 5.972Z"/><mask id="N" width="8" height="6" x="249" y="54" maskUnits="userSpaceOnUse" style="mask-type:alpha"><path fill="#D9D9D9" d="M249.422 55.895c.815 2.144 4.016-.701 6.582 4.086l-2.133-5.541c-2.193.846-4.889.3-4.449 1.455Z" opacity=".8"/></mask><g mask="url(#N)"><path fill="#D9D9D9" d="M247.66 60.37c.585 2.167 2.868 3.877 4.963 3.312 2.095-.566 3.269-2.965 2.623-5.36-.646-2.395-2.785-3.322-4.963-3.313-2.501.011-3.124 3.502-2.623 5.36Z"/></g><path fill="white" d="M274.709 206.449 281 206v-.5l-2.502-6.941-.918-2.296-3.367 3.235.496 6.951Z"/><g fill="white" opacity=".8"><path d="M38.28 160.634a3.889 3.889 0 0 0-.276 1.088c-.051.422-.034.889.053 1.402.098.573.265 1.041.503 1.405.229.365.514.647.855.844.34.188.733.302 1.179.34.436.032.91.004 1.423-.083 1.17-.199 2.011-.606 2.522-1.22.511-.614.68-1.43.508-2.446a4.664 4.664 0 0 0-.483-1.448c-.231-.427-.48-.758-.75-.994l.816-.402c.263.307.517.691.762 1.15.235.452.404.982.507 1.588.12.701.107 1.327-.037 1.879a3.718 3.718 0 0 1-.718 1.441c-.336.4-.747.724-1.232.974a5.613 5.613 0 0 1-1.612.524 5.34 5.34 0 0 1-1.75.02 4.023 4.023 0 0 1-1.52-.559 3.874 3.874 0 0 1-1.172-1.159c-.32-.491-.54-1.086-.66-1.787a6.459 6.459 0 0 1-.08-1.41 4.71 4.71 0 0 1 .194-1.26l.969.113ZM35.986 153.324c-.053-.674.016-1.279.207-1.816.192-.537.477-.999.855-1.386.37-.385.81-.69 1.322-.914a5.082 5.082 0 0 1 1.638-.404 5.13 5.13 0 0 1 1.68.14 4.04 4.04 0 0 1 1.476.69c.435.322.799.741 1.092 1.257.284.507.454 1.115.51 1.824.056.691-.013 1.301-.206 1.829a3.61 3.61 0 0 1-.844 1.345c-.37.369-.808.66-1.313.875a5.562 5.562 0 0 1-1.639.378 5.373 5.373 0 0 1-1.745-.134 4.182 4.182 0 0 1-1.478-.704 3.77 3.77 0 0 1-1.063-1.233c-.275-.499-.439-1.082-.492-1.747Zm7.923-.567c-.045-.561-.173-1.034-.387-1.417-.213-.391-.49-.7-.83-.925a3.117 3.117 0 0 0-1.16-.481 5.17 5.17 0 0 0-1.4-.071 5.01 5.01 0 0 0-1.424.31 2.967 2.967 0 0 0-1.069.659 2.509 2.509 0 0 0-.648 1.029c-.141.412-.19.889-.146 1.434.044.553.168 1.017.372 1.392.195.375.457.672.788.889.321.217.698.366 1.13.444.433.079.904.098 1.414.057 1.192-.095 2.07-.426 2.633-.993.563-.566.806-1.342.727-2.327ZM44.184 140.135l.014 4.81-8.58.026-.003-.975 7.67-.023-.011-3.835.91-.003ZM35.886 133.554c.052-.674.214-1.262.487-1.762a3.762 3.762 0 0 1 1.06-1.235 4.041 4.041 0 0 1 1.45-.697 5.088 5.088 0 0 1 1.68-.145c.57.044 1.116.178 1.637.4a4.05 4.05 0 0 1 1.351.913c.38.385.673.856.883 1.411.201.546.274 1.173.22 1.881-.053.692-.216 1.283-.489 1.775s-.62.891-1.044 1.197a4.115 4.115 0 0 1-1.433.659c-.54.124-1.099.163-1.678.119a5.34 5.34 0 0 1-1.703-.405 4.166 4.166 0 0 1-1.35-.926 3.76 3.76 0 0 1-.858-1.383c-.193-.536-.264-1.137-.213-1.802Zm7.914.674c.044-.561-.01-1.048-.161-1.459a2.55 2.55 0 0 0-.676-1.043 3.098 3.098 0 0 0-1.07-.656 5.114 5.114 0 0 0-1.374-.289 5.042 5.042 0 0 0-1.453.084 2.982 2.982 0 0 0-1.159.484c-.33.227-.597.532-.8.917-.204.384-.327.848-.369 1.392-.042.554.008 1.031.15 1.433.135.402.348.735.64 1.001.285.266.634.471 1.049.616.414.145.877.237 1.386.276 1.193.092 2.111-.098 2.756-.57.645-.472 1.005-1.2 1.081-2.186ZM44.956 121.184l-6.724-4.173.222-1.228 8.443 1.524-.173.959-6.384-1.152 5.918 3.736-.208 1.152-6.865 1.443 6.396 1.154-.173.959-8.443-1.523.233-1.292 7.758-1.559ZM39.408 112.041c.056-.272.128-.589.217-.951.08-.364.161-.697.243-.998.201-.745.547-1.293 1.038-1.645.481-.355 1.078-.436 1.79-.244.334.091.62.245.857.461.232.207.404.482.518.827.303-.457.672-.778 1.11-.966.436-.187.93-.206 1.482-.056.352.095.665.247.94.456.276.209.496.475.66.798.165.323.266.696.304 1.119.03.421-.026.891-.166 1.41-.11.41-.23.786-.36 1.128-.12.345-.236.645-.35.901l-8.283-2.24Zm8.154.024c.184-.677.168-1.234-.046-1.669-.22-.446-.632-.75-1.235-.913-.477-.129-.897-.068-1.261.184-.37.241-.66.742-.865 1.503-.05.185-.095.37-.137.556-.047.176-.09.348-.127.518l3.339.903c.113-.32.224-.68.333-1.082Zm-4.204-.787c.143-.527.119-.969-.072-1.326-.189-.365-.513-.61-.973-.734-.368-.1-.692-.08-.973.06-.28.14-.488.46-.623.962-.05.184-.096.37-.137.556-.048.176-.09.348-.127.518l2.686.726a5.45 5.45 0 0 0 .11-.36l.11-.402ZM50.281 105.491l-.31.925-8.135-2.726.31-.924 8.135 2.725ZM54.33 94.87l-.412 1.026-3.148.094-1.43 3.558 2.251 2.138-.387.965-6.682-6.383.44-1.098 9.368-.3Zm-5.699 4.001 1.144-2.846-4.027.119 2.883 2.727ZM49.481 88.786l6.271 3.155-.438.87-7.665-3.855.532-1.057 8.269-.788-6.283-3.16.438-.871 7.665 3.855-.532 1.057-8.257.794ZM55.372 74.995l.028-.044c.137-.241.295-.506.472-.794.17-.292.339-.565.505-.82a4.19 4.19 0 0 1 .85-.966 2.57 2.57 0 0 1 .968-.532 2.295 2.295 0 0 1 1.077-.057c.369.055.741.205 1.119.452.304.199.558.437.76.714.202.277.338.583.408.92.07.335.063.703-.022 1.103-.088.388-.269.792-.544 1.213-.228.348-.44.65-.637.903l2.731 1.785-.533.816-7.182-4.693Zm1.766-1.253c-.1.152-.196.307-.288.464a8.838 8.838 0 0 0-.26.42l3.048 1.992c.192-.247.397-.537.615-.871.351-.537.48-1.027.387-1.471-.095-.456-.404-.855-.927-1.196a2.382 2.382 0 0 0-.666-.311 1.36 1.36 0 0 0-.664-.03 1.458 1.458 0 0 0-.632.301c-.21.163-.414.397-.613.702ZM59.791 68.45c.17-.252.354-.515.553-.79.196-.285.386-.55.57-.79.284-.372.586-.676.907-.91.314-.241.635-.405.963-.492.334-.095.67-.106 1.007-.034.336.06.662.21.979.453.441.336.74.76.895 1.27.155.511.105 1.078-.152 1.7l5.003-.322-.733.962-4.862.33c-.232.303-.452.57-.662.803l2.946 2.247-.591.775-6.823-5.203Zm1.853-1.122c-.11.145-.218.292-.321.442a8.964 8.964 0 0 0-.29.4l2.554 1.948c.108-.114.215-.24.32-.377l.347-.455c.389-.51.563-.982.523-1.415-.041-.446-.29-.843-.744-1.19-.358-.273-.737-.376-1.136-.31-.394.06-.812.378-1.253.957ZM76.24 61.97l-3.29 3.719-6.427-5.686 3.119-3.525.681.603-2.472 2.795 1.996 1.766 1.895-2.142.682.603-1.896 2.142 2.386 2.11 2.644-2.989.682.603ZM80.719 55.836l-2.948-7.344.905-.858 5.903 6.227-.708.67-4.462-4.707 2.556 6.514-.85.805-6.386-2.902 4.471 4.718-.707.67-5.902-6.227.953-.903 7.175 3.337ZM87.707 51.343l-.755.617-5.427-6.645.755-.617 5.427 6.645ZM90.41 45.03c.546.76 1.102 1.187 1.67 1.281.576.089 1.16-.079 1.752-.503.591-.424.938-.922 1.039-1.496.1-.573-.122-1.24-.667-2.001l-3.059-4.27.74-.53 3.316 4.63c.248.344.427.706.538 1.085.107.371.132.748.075 1.13a2.854 2.854 0 0 1-.454 1.109c-.24.364-.585.707-1.036 1.03-.493.354-.958.59-1.394.711-.43.116-.828.14-1.195.073a2.585 2.585 0 0 1-1.026-.449 4.113 4.113 0 0 1-.834-.874l-3.316-4.628.793-.568 3.058 4.27ZM103.181 39.25l-1.163-7.828 1.08-.625 4.296 7.428-.844.488-3.248-5.616.974 6.93-1.013.586-5.538-4.306 3.254 5.627-.844.488-4.295-7.427 1.136-.658 6.205 4.912ZM116.831 26.154a3.891 3.891 0 0 0-1.123-.02 4.87 4.87 0 0 0-1.353.373c-.535.225-.952.495-1.252.81a2.455 2.455 0 0 0-.626 1.026 2.924 2.924 0 0 0-.062 1.225c.069.432.205.887.407 1.366.461 1.094 1.05 1.82 1.764 2.177.715.357 1.548.335 2.498-.066.503-.212.936-.48 1.299-.802.362-.322.628-.64.796-.956l.578.702a6.412 6.412 0 0 1-.945 1.005 5.392 5.392 0 0 1-1.43.857c-.655.276-1.268.407-1.838.394a3.712 3.712 0 0 1-1.566-.37 3.947 3.947 0 0 1-1.231-.977 5.61 5.61 0 0 1-.879-1.449 5.355 5.355 0 0 1-.42-1.699 4.033 4.033 0 0 1 .197-1.607 3.87 3.87 0 0 1 .86-1.407c.404-.424.934-.774 1.589-1.05a6.45 6.45 0 0 1 1.354-.402 4.714 4.714 0 0 1 1.271-.098l.112.968ZM123.178 22.368c.644-.207 1.249-.279 1.815-.215a3.771 3.771 0 0 1 1.545.514c.46.271.858.63 1.193 1.078.335.448.591.948.769 1.5.175.546.258 1.101.249 1.669a4.06 4.06 0 0 1-.334 1.595 3.995 3.995 0 0 1-.973 1.35c-.429.393-.982.698-1.658.916-.66.212-1.27.285-1.828.218a3.607 3.607 0 0 1-1.503-.513 4.12 4.12 0 0 1-1.152-1.078 5.53 5.53 0 0 1-.744-1.509 5.332 5.332 0 0 1-.269-1.73c.014-.577.13-1.11.346-1.599.214-.496.532-.935.956-1.317.423-.382.953-.675 1.588-.88Zm2.368 7.582c.536-.172.966-.406 1.29-.701a2.55 2.55 0 0 0 .71-1.02c.15-.385.217-.799.203-1.24a5.141 5.141 0 0 0-.252-1.38 5.03 5.03 0 0 0-.627-1.314 2.985 2.985 0 0 0-.887-.89 2.513 2.513 0 0 0-1.151-.394c-.433-.043-.909.018-1.429.186-.528.17-.951.396-1.269.68-.321.277-.549.6-.685.972a2.922 2.922 0 0 0-.173 1.202c.022.439.112.902.268 1.389.366 1.138.889 1.917 1.57 2.335.681.419 1.491.477 2.432.175ZM136.051 23.573l-2.643.63.949 3.983-.949.226-1.988-8.347 4.515-1.075.211.885-3.566.85.617 2.592 2.643-.63.211.886ZM143.837 22.125l-2.679.454.686 4.038-.962.163-1.436-8.46 4.575-.776.153.897-3.615.614.447 2.627 2.678-.455.153.898ZM153.642 25.08l-4.938.528-.912-8.531 4.679-.5.097.904-3.71.397.283 2.65 2.844-.304.097.905-2.844.304.339 3.167 3.968-.425.097.905ZM161.859 24.765l-4.964.167-.288-8.575 4.704-.158.03.91-3.729.125.09 2.663 2.858-.096.031.91-2.859.096.107 3.183 3.989-.134.031.91ZM168.858 16.369c.304.005.624.015.962.031.347.008.672.023.974.046.467.034.887.12 1.259.261.372.132.685.311.938.538.261.228.454.502.578.824.134.314.186.67.157 1.068a2.475 2.475 0 0 1-.575 1.444c-.343.409-.845.676-1.506.802l3.004 4.013-1.206-.088-2.934-3.891a12.614 12.614 0 0 1-1.035-.115l-.27 3.695-.973-.071.627-8.557Zm1.952.938a11.599 11.599 0 0 0-.546-.027 9.012 9.012 0 0 0-.494-.023l-.234 3.202c.154.029.318.05.491.062l.57.042c.64.047 1.13-.065 1.472-.335.35-.279.546-.703.588-1.274.033-.45-.087-.823-.361-1.121-.265-.298-.76-.473-1.486-.526ZM182.423 17.768c.667.11 1.238.323 1.713.639.475.315.855.703 1.139 1.163.286.45.475.952.569 1.503a5.077 5.077 0 0 1-.002 1.686 5.15 5.15 0 0 1-.54 1.598 4.04 4.04 0 0 1-1.026 1.267 3.995 3.995 0 0 1-1.482.756c-.561.154-1.192.173-1.893.057-.684-.113-1.26-.327-1.726-.64a3.61 3.61 0 0 1-1.102-1.144 4.11 4.11 0 0 1-.533-1.485 5.593 5.593 0 0 1 .027-1.682 5.35 5.35 0 0 1 .551-1.661 4.16 4.16 0 0 1 1.039-1.265 3.77 3.77 0 0 1 1.452-.735c.551-.147 1.156-.165 1.814-.057Zm-1.357 7.827c.556.091 1.045.08 1.468-.035a2.55 2.55 0 0 0 1.098-.583c.309-.274.557-.61.746-1.01.191-.408.326-.855.406-1.343a5.004 5.004 0 0 0 .043-1.455 2.967 2.967 0 0 0-.383-1.196 2.51 2.51 0 0 0-.843-.877c-.365-.236-.817-.399-1.356-.488-.547-.09-1.027-.081-1.44.026a2.316 2.316 0 0 0-1.053.551 2.93 2.93 0 0 0-.704.99c-.18.401-.312.854-.395 1.359-.195 1.18-.085 2.111.329 2.794.415.684 1.109 1.106 2.084 1.267ZM195.672 29.542l-1.071-.273-.51-3.108-3.716-.946-1.821 2.514-1.008-.256 5.443-7.468 1.146.292 1.537 9.245Zm-4.72-5.12 2.973.758-.651-3.976-2.322 3.219ZM200.253 24.216c-.069.205-.09.39-.063.555.038.159.122.32.25.481.137.165.316.339.538.523l.829.634c.271.2.533.416.785.647.254.222.465.466.632.733.177.26.289.554.335.88.049.318.007.674-.125 1.069-.14.419-.342.749-.606.99-.263.24-.562.41-.896.508-.332.09-.689.116-1.069.08a5.092 5.092 0 0 1-1.139-.244 5.903 5.903 0 0 1-2.46-1.578l.56-.813c.121.159.243.314.366.465.125.142.268.277.427.403.167.13.354.252.562.367.208.116.456.221.744.318.37.124.697.197.982.22.285.021.529.003.732-.057.205-.069.373-.172.502-.312s.225-.304.288-.493c.094-.28.107-.535.039-.769a1.895 1.895 0 0 0-.349-.678c-.158-.209-.35-.401-.575-.577a13.884 13.884 0 0 0-.648-.519 9.62 9.62 0 0 1-.838-.692 3.15 3.15 0 0 1-.582-.716 2.165 2.165 0 0 1-.258-.785 2.18 2.18 0 0 1 .124-.905c.124-.37.295-.66.512-.87a1.92 1.92 0 0 1 .769-.456 2.55 2.55 0 0 1 .958-.076c.348.025.707.1 1.077.223.443.15.856.337 1.236.566a5.5 5.5 0 0 1 .936.683l-.576.863a1.751 1.751 0 0 0-.374-.44 2.559 2.559 0 0 0-.493-.371 3.542 3.542 0 0 0-.534-.289 4.305 4.305 0 0 0-.517-.215c-.518-.173-.962-.212-1.332-.117-.359.09-.609.345-.749.764ZM213.94 28.19l-2.534-1.051-2.937 7.085-.901-.374 2.938-7.085-2.534-1.05.349-.841 5.968 2.475-.349.84ZM218.021 38.755l-4.444-2.216 3.827-7.678 4.212 2.1-.406.814-3.339-1.665-1.189 2.385 2.56 1.276-.406.814-2.56-1.276-1.421 2.85 3.572 1.781-.406.815ZM224.368 32.473c.27.14.552.292.847.457.307.162.591.32.852.475.403.239.739.504 1.01.795.275.284.475.584.6.9.132.32.182.652.15.996-.02.34-.132.682-.336 1.025a2.473 2.473 0 0 1-1.158 1.036c-.49.214-1.058.23-1.705.047l.899 4.931-1.04-.616-.892-4.791c-.328-.195-.62-.383-.875-.564l-1.889 3.187-.839-.498 4.376-7.38Zm1.329 1.71a11.573 11.573 0 0 0-.476-.267 9.175 9.175 0 0 0-.432-.241l-1.638 2.762c.126.094.263.186.412.274l.492.292c.552.327 1.041.446 1.467.356.438-.093.802-.386 1.094-.878.23-.387.289-.776.177-1.164-.105-.385-.47-.763-1.096-1.134ZM232.184 39.764c-.124.178-.196.35-.216.515-.008.163.027.34.105.532.085.196.208.414.369.653l.618.842c.204.268.394.548.571.84.182.285.316.579.401.881.097.3.122.613.075.94-.042.318-.182.648-.42.99-.252.362-.539.623-.859.78a2.26 2.26 0 0 1-1.004.236 2.985 2.985 0 0 1-1.049-.223 5.708 5.708 0 0 1-2.196-1.623 5.898 5.898 0 0 1-.746-1.137l.767-.623c.07.187.144.37.219.55.081.171.18.34.297.506.124.171.27.341.437.51.167.17.375.34.624.514.321.223.614.385.881.486.268.102.507.152.719.152.216-.008.406-.06.569-.159.163-.097.301-.228.415-.392.169-.242.253-.484.253-.727.005-.25-.043-.5-.144-.749a3.194 3.194 0 0 0-.39-.715c-.154-.234-.313-.46-.477-.68a9.723 9.723 0 0 1-.609-.9 3.154 3.154 0 0 1-.358-.85 2.17 2.17 0 0 1-.027-.826c.051-.271.175-.549.373-.833.223-.32.468-.551.735-.692.28-.144.569-.218.867-.221.305.001.619.066.941.195.327.122.65.294.97.517.385.267.727.564 1.028.89.302.325.537.632.707.919l-.796.666A1.755 1.755 0 0 0 235.6 41c-.1-.175-.223-.34-.369-.494a3.595 3.595 0 0 0-.432-.427 4.39 4.39 0 0 0-.436-.351c-.449-.312-.864-.474-1.246-.487-.37-.014-.681.16-.933.523Z"/></g><path fill="white" d="M288.989 185.889v-.403a.686.686 0 0 0 .312-.078.382.382 0 0 0 .169-.182.835.835 0 0 0 .052-.312c.009-.13.013-.286.013-.468v-1.56c0-.225-.03-.42-.091-.585-.061-.165-.212-.256-.455-.273v-.442h1.768c.303 0 .559.039.767.117.208.069.373.165.494.286.13.113.221.247.273.403.061.156.091.312.091.468 0 .199-.022.368-.065.507a1.011 1.011 0 0 1-.156.351.825.825 0 0 1-.221.234c-.078.061-.16.113-.247.156.104.156.212.316.325.481.113.165.225.316.338.455.121.13.243.243.364.338.121.087.238.13.351.13v.377a2.98 2.98 0 0 1-.273.026h-.156c-.147 0-.273-.017-.377-.052a.974.974 0 0 1-.312-.182 3.03 3.03 0 0 1-.338-.377l-.455-.624-.247-.351h-.507c0 .459.035.771.104.936.069.156.217.234.442.234l.026.39h-1.989Zm1.859-2.171a.597.597 0 0 0 .52-.26.938.938 0 0 0 .182-.546.662.662 0 0 0-.208-.507.653.653 0 0 0-.481-.195h-.455v1.339c0 .087.017.139.052.156a.637.637 0 0 0 .13.013h.26Zm.091-3.718c.546 0 1.057.104 1.534.312.485.199.906.477 1.261.832.355.355.637.771.845 1.248.208.468.312.971.312 1.508 0 .546-.104 1.062-.312 1.547a3.905 3.905 0 0 1-2.132 2.08 4.106 4.106 0 0 1-1.573.299 3.73 3.73 0 0 1-1.508-.312 4.066 4.066 0 0 1-1.235-.845 4.124 4.124 0 0 1-.832-1.248A3.91 3.91 0 0 1 287 183.9c0-.537.1-1.04.299-1.508.208-.477.49-.893.845-1.248a3.99 3.99 0 0 1 1.261-.832 3.794 3.794 0 0 1 1.534-.312Zm0 .767a3.01 3.01 0 0 0-2.184.923 3.154 3.154 0 0 0-.663.988 3.044 3.044 0 0 0-.247 1.222c0 .433.078.845.234 1.235.165.381.386.715.663 1.001.277.286.598.511.962.676a2.89 2.89 0 0 0 1.183.247c.442 0 .854-.082 1.235-.247.39-.165.724-.386 1.001-.663.286-.286.511-.62.676-1.001a3.17 3.17 0 0 0 .247-1.248c0-.433-.082-.841-.247-1.222a3.042 3.042 0 0 0-.676-.988 3.042 3.042 0 0 0-.988-.676 2.92 2.92 0 0 0-1.196-.247Z"/><defs><linearGradient id="b" x1="175.953" x2="175.953" y1="25.665" y2="221.614" gradientUnits="userSpaceOnUse"><stop stop-color="#FFB800"/><stop offset=".359" stop-color="#FFC01F"/><stop offset=".427" stop-color="#1C6591"/><stop offset=".536" stop-color="#1C6591"/><stop offset=".615" stop-color="#D00000"/><stop offset=".885" stop-color="#D00000"/></linearGradient><linearGradient id="c" x1="175.953" x2="175.953" y1="25.665" y2="221.614" gradientUnits="userSpaceOnUse"><stop stop-color="#FFB800"/><stop offset=".359" stop-color="#FFC01F"/><stop offset=".427" stop-color="#1C6591"/><stop offset=".536" stop-color="#1C6591"/><stop offset=".615" stop-color="#D00000"/><stop offset=".885" stop-color="#D00000"/></linearGradient><linearGradient id="d" x1="175.953" x2="175.953" y1="25.665" y2="221.614" gradientUnits="userSpaceOnUse"><stop stop-color="#FFB800"/><stop offset=".359" stop-color="#FFC01F"/><stop offset=".427" stop-color="#1C6591"/><stop offset=".536" stop-color="#1C6591"/><stop offset=".615" stop-color="#D00000"/><stop offset=".885" stop-color="#D00000"/></linearGradient><linearGradient id="e" x1="175.953" x2="175.953" y1="25.665" y2="221.614" gradientUnits="userSpaceOnUse"><stop stop-color="#FFB800"/><stop offset=".359" stop-color="#FFC01F"/><stop offset=".427" stop-color="#1C6591"/><stop offset=".536" stop-color="#1C6591"/><stop offset=".615" stop-color="#D00000"/><stop offset=".885" stop-color="#D00000"/></linearGradient><linearGradient id="f" x1="175.953" x2="175.953" y1="25.665" y2="221.614" gradientUnits="userSpaceOnUse"><stop stop-color="#FFB800"/><stop offset=".359" stop-color="#FFC01F"/><stop offset=".427" stop-color="#1C6591"/><stop offset=".536" stop-color="#1C6591"/><stop offset=".615" stop-color="#D00000"/><stop offset=".885" stop-color="#D00000"/></linearGradient><linearGradient id="g" x1="175.953" x2="175.953" y1="25.665" y2="221.614" gradientUnits="userSpaceOnUse"><stop stop-color="#FFB800"/><stop offset=".359" stop-color="#FFC01F"/><stop offset=".427" stop-color="#1C6591"/><stop offset=".536" stop-color="#1C6591"/><stop offset=".615" stop-color="#D00000"/><stop offset=".885" stop-color="#D00000"/></linearGradient><linearGradient id="h" x1="175.953" x2="175.953" y1="25.665" y2="221.614" gradientUnits="userSpaceOnUse"><stop stop-color="#FFB800"/><stop offset=".359" stop-color="#FFC01F"/><stop offset=".427" stop-color="#1C6591"/><stop offset=".536" stop-color="#1C6591"/><stop offset=".615" stop-color="#D00000"/><stop offset=".885" stop-color="#D00000"/></linearGradient><linearGradient id="i" x1="175.953" x2="175.953" y1="25.665" y2="221.614" gradientUnits="userSpaceOnUse"><stop stop-color="#FFB800"/><stop offset=".359" stop-color="#FFC01F"/><stop offset=".427" stop-color="#1C6591"/><stop offset=".536" stop-color="#1C6591"/><stop offset=".615" stop-color="#D00000"/><stop offset=".885" stop-color="#D00000"/></linearGradient><linearGradient id="j" x1="175.953" x2="175.953" y1="25.665" y2="221.614" gradientUnits="userSpaceOnUse"><stop stop-color="#FFB800"/><stop offset=".359" stop-color="#FFC01F"/><stop offset=".427" stop-color="#1C6591"/><stop offset=".536" stop-color="#1C6591"/><stop offset=".615" stop-color="#D00000"/><stop offset=".885" stop-color="#D00000"/></linearGradient><linearGradient id="k" x1="175.953" x2="175.953" y1="25.665" y2="221.614" gradientUnits="userSpaceOnUse"><stop stop-color="#FFB800"/><stop offset=".359" stop-color="#FFC01F"/><stop offset=".427" stop-color="#1C6591"/><stop offset=".536" stop-color="#1C6591"/><stop offset=".615" stop-color="#D00000"/><stop offset=".885" stop-color="#D00000"/></linearGradient><linearGradient id="l" x1="175.953" x2="175.953" y1="25.665" y2="221.614" gradientUnits="userSpaceOnUse"><stop stop-color="#FFB800"/><stop offset=".359" stop-color="#FFC01F"/><stop offset=".427" stop-color="#1C6591"/><stop offset=".536" stop-color="#1C6591"/><stop offset=".615" stop-color="#D00000"/><stop offset=".885" stop-color="#D00000"/></linearGradient><linearGradient id="m" x1="175.953" x2="175.953" y1="25.665" y2="221.614" gradientUnits="userSpaceOnUse"><stop stop-color="#FFB800"/><stop offset=".359" stop-color="#FFC01F"/><stop offset=".427" stop-color="#1C6591"/><stop offset=".536" stop-color="#1C6591"/><stop offset=".615" stop-color="#D00000"/><stop offset=".885" stop-color="#D00000"/></linearGradient><linearGradient id="n" x1="175.953" x2="175.953" y1="25.665" y2="221.614" gradientUnits="userSpaceOnUse"><stop stop-color="#FFB800"/><stop offset=".359" stop-color="#FFC01F"/><stop offset=".427" stop-color="#1C6591"/><stop offset=".536" stop-color="#1C6591"/><stop offset=".615" stop-color="#D00000"/><stop offset=".885" stop-color="#D00000"/></linearGradient><linearGradient id="o" x1="175.953" x2="175.953" y1="25.665" y2="221.614" gradientUnits="userSpaceOnUse"><stop stop-color="#FFB800"/><stop offset=".359" stop-color="#FFC01F"/><stop offset=".427" stop-color="#1C6591"/><stop offset=".536" stop-color="#1C6591"/><stop offset=".615" stop-color="#D00000"/><stop offset=".885" stop-color="#D00000"/></linearGradient><linearGradient id="p" x1="175.953" x2="175.953" y1="25.665" y2="221.614" gradientUnits="userSpaceOnUse"><stop stop-color="#FFB800"/><stop offset=".359" stop-color="#FFC01F"/><stop offset=".427" stop-color="#1C6591"/><stop offset=".536" stop-color="#1C6591"/><stop offset=".615" stop-color="#D00000"/><stop offset=".885" stop-color="#D00000"/></linearGradient><linearGradient id="q" x1="175.953" x2="175.953" y1="25.665" y2="221.614" gradientUnits="userSpaceOnUse"><stop stop-color="#FFB800"/><stop offset=".359" stop-color="#FFC01F"/><stop offset=".427" stop-color="#1C6591"/><stop offset=".536" stop-color="#1C6591"/><stop offset=".615" stop-color="#D00000"/><stop offset=".885" stop-color="#D00000"/></linearGradient><linearGradient id="r" x1="175.953" x2="175.953" y1="25.665" y2="221.614" gradientUnits="userSpaceOnUse"><stop stop-color="#FFB800"/><stop offset=".359" stop-color="#FFC01F"/><stop offset=".427" stop-color="#1C6591"/><stop offset=".536" stop-color="#1C6591"/><stop offset=".615" stop-color="#D00000"/><stop offset=".885" stop-color="#D00000"/></linearGradient><linearGradient id="s" x1="175.953" x2="175.953" y1="25.665" y2="221.614" gradientUnits="userSpaceOnUse"><stop stop-color="#FFB800"/><stop offset=".359" stop-color="#FFC01F"/><stop offset=".427" stop-color="#1C6591"/><stop offset=".536" stop-color="#1C6591"/><stop offset=".615" stop-color="#D00000"/><stop offset=".885" stop-color="#D00000"/></linearGradient><linearGradient id="t" x1="175.953" x2="175.953" y1="25.665" y2="221.614" gradientUnits="userSpaceOnUse"><stop stop-color="#FFB800"/><stop offset=".359" stop-color="#FFC01F"/><stop offset=".427" stop-color="#1C6591"/><stop offset=".536" stop-color="#1C6591"/><stop offset=".615" stop-color="#D00000"/><stop offset=".885" stop-color="#D00000"/></linearGradient><linearGradient id="u" x1="175.953" x2="175.953" y1="25.665" y2="221.614" gradientUnits="userSpaceOnUse"><stop stop-color="#FFB800"/><stop offset=".359" stop-color="#FFC01F"/><stop offset=".427" stop-color="#1C6591"/><stop offset=".536" stop-color="#1C6591"/><stop offset=".615" stop-color="#D00000"/><stop offset=".885" stop-color="#D00000"/></linearGradient><linearGradient id="v" x1="175.953" x2="175.953" y1="25.665" y2="221.614" gradientUnits="userSpaceOnUse"><stop stop-color="#FFB800"/><stop offset=".359" stop-color="#FFC01F"/><stop offset=".427" stop-color="#1C6591"/><stop offset=".536" stop-color="#1C6591"/><stop offset=".615" stop-color="#D00000"/><stop offset=".885" stop-color="#D00000"/></linearGradient><linearGradient id="w" x1="175.953" x2="175.953" y1="25.665" y2="221.614" gradientUnits="userSpaceOnUse"><stop stop-color="#FFB800"/><stop offset=".359" stop-color="#FFC01F"/><stop offset=".427" stop-color="#1C6591"/><stop offset=".536" stop-color="#1C6591"/><stop offset=".615" stop-color="#D00000"/><stop offset=".885" stop-color="#D00000"/></linearGradient><linearGradient id="x" x1="175.953" x2="175.953" y1="25.665" y2="221.614" gradientUnits="userSpaceOnUse"><stop stop-color="#FFB800"/><stop offset=".359" stop-color="#FFC01F"/><stop offset=".427" stop-color="#1C6591"/><stop offset=".536" stop-color="#1C6591"/><stop offset=".615" stop-color="#D00000"/><stop offset=".885" stop-color="#D00000"/></linearGradient><linearGradient id="y" x1="175.953" x2="175.953" y1="25.665" y2="221.614" gradientUnits="userSpaceOnUse"><stop stop-color="#FFB800"/><stop offset=".359" stop-color="#FFC01F"/><stop offset=".427" stop-color="#1C6591"/><stop offset=".536" stop-color="#1C6591"/><stop offset=".615" stop-color="#D00000"/><stop offset=".885" stop-color="#D00000"/></linearGradient><linearGradient id="z" x1="175.953" x2="175.953" y1="25.665" y2="221.614" gradientUnits="userSpaceOnUse"><stop stop-color="#FFB800"/><stop offset=".359" stop-color="#FFC01F"/><stop offset=".427" stop-color="#1C6591"/><stop offset=".536" stop-color="#1C6591"/><stop offset=".615" stop-color="#D00000"/><stop offset=".885" stop-color="#D00000"/></linearGradient><linearGradient id="A" x1="175.953" x2="175.953" y1="25.665" y2="221.614" gradientUnits="userSpaceOnUse"><stop stop-color="#FFB800"/><stop offset=".359" stop-color="#FFC01F"/><stop offset=".427" stop-color="#1C6591"/><stop offset=".536" stop-color="#1C6591"/><stop offset=".615" stop-color="#D00000"/><stop offset=".885" stop-color="#D00000"/></linearGradient></defs></svg>