<?xml version="1.0" standalone="no"?>
<!DOCTYPE svg PUBLIC "-//W3C//DTD SVG 20010904//EN"
 "http://www.w3.org/TR/2001/REC-SVG-20010904/DTD/svg10.dtd">
<svg version="1.0" xmlns="http://www.w3.org/2000/svg"
 width="700.000000pt" height="700.000000pt" viewBox="0 0 700.000000 700.000000"
 preserveAspectRatio="xMidYMid meet">
<metadata>
Created by potrace 1.14, written by Peter Selinger 2001-2017
</metadata>
<g transform="translate(0.000000,700.000000) scale(0.100000,-0.100000)"
fill="#000000" stroke="none">
<path d="M0 3500 l0 -3500 3500 0 3500 0 0 3500 0 3500 -3500 0 -3500 0 0
-3500z m1602 2065 c245 -18 822 -20 969 -4 117 13 115 14 143 -71 46 -138 184
-399 404 -765 568 -942 1071 -1729 1358 -2123 l119 -164 6 264 c11 450 10
1609 -2 1903 -6 163 -16 306 -25 342 -22 99 -76 203 -134 257 -75 70 -117 85
-259 93 -86 4 -125 10 -133 20 -15 19 -34 251 -21 264 6 6 104 2 274 -11 426
-32 1210 -24 1438 16 l34 5 -7 -132 c-3 -73 -11 -138 -17 -144 -5 -5 -68 -15
-139 -22 -157 -14 -196 -30 -273 -111 -70 -74 -91 -119 -114 -243 -17 -88 -18
-199 -18 -1629 0 -1392 2 -1550 18 -1701 9 -92 17 -169 17 -172 0 -2 -11 -12
-25 -21 -24 -16 -53 -16 -413 -1 l-387 16 -37 42 c-20 23 -472 690 -1003 1482
-531 792 -971 1445 -977 1450 -7 7 -8 -1 -4 -25 3 -19 8 -462 11 -985 3 -522
10 -1035 16 -1139 15 -269 36 -335 138 -437 90 -89 122 -102 278 -108 74 -4
137 -11 143 -17 16 -16 35 -253 21 -267 -8 -8 -110 -4 -353 11 -417 27 -580
27 -993 2 -380 -23 -401 -24 -408 -7 -9 25 15 242 30 258 11 13 39 18 131 21
149 6 199 27 294 126 56 57 69 79 87 136 40 130 42 230 39 1611 -4 1300 -4
1321 -24 1387 -26 84 -75 166 -136 230 -69 71 -112 87 -257 95 -67 3 -128 11
-135 17 -19 14 -39 245 -23 264 7 9 28 11 76 7 36 -3 159 -12 273 -20z"/>
</g>
</svg>
